<svg width="29" height="20" viewBox="0 0 29 20" fill="none" xmlns="http://www.w3.org/2000/svg">
<path d="M27.5572 3.07143C27.1231 2.876 26.6412 2.81243 26.1713 2.88862C25.7015 2.96482 25.2643 3.17742 24.9143 3.5L21.8429 6.35714V4.28571C21.8429 3.14907 21.3913 2.05898 20.5876 1.25526C19.7839 0.451529 18.6938 0 17.5572 0H4.70002C3.56338 0 2.47329 0.451529 1.66956 1.25526C0.865836 2.05898 0.414307 3.14907 0.414307 4.28571V15.7143C0.414307 16.8509 0.865836 17.941 1.66956 18.7447C2.47329 19.5485 3.56338 20 4.70002 20H17.5572C18.6938 20 19.7839 19.5485 20.5876 18.7447C21.3913 17.941 21.8429 16.8509 21.8429 15.7143V13.6429L24.9286 16.5C25.3829 16.9112 25.973 17.1401 26.5857 17.1429C26.9258 17.1421 27.2618 17.069 27.5715 16.9286C27.9928 16.7581 28.3538 16.4659 28.6082 16.0893C28.8627 15.7127 28.9991 15.2688 29 14.8143V5.18571C28.998 4.72955 28.8594 4.28444 28.6023 3.90766C28.3452 3.53087 27.9812 3.23964 27.5572 3.07143Z" fill="white"/>
<path d="M15.5019 9.44695H12.1163V6.06134C12.1163 5.91169 12.0568 5.76816 11.951 5.66234C11.8452 5.55652 11.7016 5.49707 11.552 5.49707C11.4023 5.49707 11.2588 5.55652 11.153 5.66234C11.0472 5.76816 10.9877 5.91169 10.9877 6.06134V9.44695H7.60211C7.45246 9.44695 7.30893 9.5064 7.20311 9.61222C7.09729 9.71804 7.03784 9.86157 7.03784 10.0112C7.03784 10.1609 7.09729 10.3044 7.20311 10.4102C7.30893 10.516 7.45246 10.5755 7.60211 10.5755H10.9877V13.9611C10.9877 14.1108 11.0472 14.2543 11.153 14.3601C11.2588 14.4659 11.4023 14.5254 11.552 14.5254C11.7016 14.5254 11.8452 14.4659 11.951 14.3601C12.0568 14.2543 12.1163 14.1108 12.1163 13.9611V10.5755H15.5019C15.6515 10.5755 15.7951 10.516 15.9009 10.4102C16.0067 10.3044 16.0661 10.1609 16.0661 10.0112C16.0661 9.86157 16.0067 9.71804 15.9009 9.61222C15.7951 9.5064 15.6515 9.44695 15.5019 9.44695Z" fill="#192030"/>
</svg>
