<svg width="25" height="25" viewBox="0 0 25 25" fill="none" xmlns="http://www.w3.org/2000/svg">
<path d="M22.4783 4.32733V14.1373C21.8683 13.7873 21.1983 13.5473 20.4783 13.4173V10.3273H6.23827L4.47827 6.79733V18.3273H13.5683C13.5183 18.6573 13.4783 18.9873 13.4783 19.3273C13.4783 19.6673 13.5183 19.9973 13.5683 20.3273H4.47827C3.94784 20.3273 3.43913 20.1166 3.06406 19.7415C2.68899 19.3665 2.47827 18.8578 2.47827 18.3273V6.32733C2.47827 5.7969 2.68899 5.28819 3.06406 4.91312C3.43913 4.53805 3.94784 4.32733 4.47827 4.32733H5.47827L7.47827 8.32733H10.4783L8.47827 4.32733H10.4783L12.4783 8.32733H15.4783L13.4783 4.32733H15.4783L17.4783 8.32733H20.4783L18.4783 4.32733H22.4783ZM17.4783 22.3273L22.4783 19.3273L17.4783 16.3273V22.3273Z" />
</svg>
