<svg width="21" height="22" viewBox="0 0 21 22" fill="none" xmlns="http://www.w3.org/2000/svg">
<path d="M20.1946 13.8447L18.1643 11.8145V9.125C18.162 7.26638 17.4706 5.47464 16.2238 4.09624C14.977 2.71784 13.2634 1.8507 11.4143 1.6625V0.125H9.91431V1.6625C8.06524 1.8507 6.35163 2.71784 5.10483 4.09624C3.85804 5.47464 3.16663 7.26638 3.16431 9.125V11.8145L1.13406 13.8447C0.993395 13.9854 0.914349 14.1761 0.914307 14.375V16.625C0.914307 16.8239 0.993324 17.0147 1.13398 17.1553C1.27463 17.296 1.46539 17.375 1.66431 17.375H6.91431V18.125C6.91431 19.1196 7.30939 20.0734 8.01266 20.7766C8.71592 21.4799 9.66974 21.875 10.6643 21.875C11.6589 21.875 12.6127 21.4799 13.316 20.7766C14.0192 20.0734 14.4143 19.1196 14.4143 18.125V17.375H19.6643C19.8632 17.375 20.054 17.296 20.1946 17.1553C20.3353 17.0147 20.4143 16.8239 20.4143 16.625V14.375C20.4143 14.1761 20.3352 13.9854 20.1946 13.8447ZM12.9143 18.125C12.9143 18.7217 12.6773 19.294 12.2553 19.716C11.8333 20.1379 11.261 20.375 10.6643 20.375C10.0676 20.375 9.49527 20.1379 9.07332 19.716C8.65136 19.294 8.41431 18.7217 8.41431 18.125V17.375H12.9143V18.125Z" fill="white"/>
</svg>
