<svg width="24" height="25" viewBox="0 0 24 25" fill="#FFFFFF" xmlns="http://www.w3.org/2000/svg">
<path fill-rule="evenodd" clip-rule="evenodd" d="M5.00008 11.5C5.00008 10.7121 5.15527 9.93185 5.4568 9.2039C5.75833 8.47595 6.20028 7.81451 6.75744 7.25736C7.31459 6.70021 7.97602 6.25825 8.70398 5.95672C9.43193 5.65519 10.2121 5.5 11.0001 5.5C11.788 5.5 12.5682 5.65519 13.2962 5.95672C14.0241 6.25825 14.6856 6.70021 15.2427 7.25736C15.7999 7.81451 16.2418 8.47595 16.5434 9.2039C16.8449 9.93185 17.0001 10.7121 17.0001 11.5C17.0001 13.0913 16.3679 14.6174 15.2427 15.7426C14.1175 16.8679 12.5914 17.5 11.0001 17.5C9.40878 17.5 7.88265 16.8679 6.75744 15.7426C5.63222 14.6174 5.00008 13.0913 5.00008 11.5ZM11.0001 3.5C9.72694 3.50018 8.47222 3.80422 7.34022 4.38684C6.20821 4.96946 5.2316 5.81384 4.49156 6.8498C3.75152 7.88577 3.26941 9.0834 3.08531 10.3432C2.9012 11.6029 3.02042 12.8884 3.43305 14.0928C3.84568 15.2973 4.53981 16.3858 5.45774 17.268C6.37568 18.1502 7.49091 18.8006 8.71075 19.1651C9.9306 19.5296 11.2198 19.5977 12.4713 19.3638C13.7227 19.1298 14.9003 18.6006 15.9061 17.82L19.2931 21.207C19.4817 21.3892 19.7343 21.49 19.9965 21.4877C20.2587 21.4854 20.5095 21.3802 20.6949 21.1948C20.8803 21.0094 20.9855 20.7586 20.9878 20.4964C20.99 20.2342 20.8892 19.9816 20.7071 19.793L17.3201 16.406C18.2382 15.2235 18.806 13.807 18.9591 12.3178C19.1121 10.8285 18.8442 9.32619 18.1858 7.98165C17.5273 6.6371 16.5049 5.50429 15.2346 4.71202C13.9643 3.91976 12.4972 3.49983 11.0001 3.5ZM11.0001 15.5C12.0609 15.5 13.0784 15.0786 13.8285 14.3284C14.5786 13.5783 15.0001 12.5609 15.0001 11.5C15.0001 10.4391 14.5786 9.42172 13.8285 8.67157C13.0784 7.92143 12.0609 7.5 11.0001 7.5C9.93921 7.5 8.92179 7.92143 8.17165 8.67157C7.4215 9.42172 7.00008 10.4391 7.00008 11.5C7.00008 12.5609 7.4215 13.5783 8.17165 14.3284C8.92179 15.0786 9.93921 15.5 11.0001 15.5Z"/>
</svg>
