<svg width="20" height="20" viewBox="0 0 20 20" fill="none" xmlns="http://www.w3.org/2000/svg">
<path d="M18.3782 10.4809C18.2178 10.3057 18.1294 10.0805 18.1294 9.84734C18.1294 9.61415 18.2178 9.38893 18.3782 9.21374L19.6582 7.83134C19.7992 7.6803 19.8868 7.49025 19.9084 7.28847C19.9299 7.08668 19.8843 6.88352 19.7782 6.70814L17.7782 3.38654C17.6731 3.21136 17.5131 3.0725 17.3209 2.98976C17.1288 2.90701 16.9143 2.88461 16.7082 2.92574L14.8282 3.29054C14.5889 3.33799 14.3399 3.29974 14.1281 3.18302C13.9162 3.06629 13.7562 2.87916 13.6782 2.65694L13.0682 0.900138C13.0011 0.709462 12.8733 0.543849 12.7028 0.426707C12.5323 0.309564 12.3278 0.246819 12.1182 0.247338H8.11817C7.9001 0.236412 7.6843 0.294308 7.50373 0.412184C7.32316 0.53006 7.18775 0.701437 7.11817 0.900138L6.55817 2.65694C6.48017 2.87916 6.32014 3.06629 6.10828 3.18302C5.89642 3.29974 5.64738 3.33799 5.40817 3.29054L3.47817 2.92574C3.28272 2.89922 3.08347 2.92883 2.90551 3.01083C2.72756 3.09283 2.57887 3.22356 2.47817 3.38654L0.478168 6.70814C0.369328 6.88156 0.32039 7.08358 0.33835 7.28531C0.356311 7.48704 0.44025 7.67816 0.578168 7.83134L1.84817 9.21374C2.00849 9.38893 2.0969 9.61415 2.0969 9.84734C2.0969 10.0805 2.00849 10.3057 1.84817 10.4809L0.578168 11.8633C0.44025 12.0165 0.356311 12.2076 0.33835 12.4094C0.32039 12.6111 0.369328 12.8131 0.478168 12.9865L2.47817 16.3081C2.58327 16.4833 2.74329 16.6222 2.93542 16.7049C3.12755 16.7877 3.34199 16.8101 3.54817 16.7689L5.42817 16.4041C5.66738 16.3567 5.91642 16.3949 6.12828 16.5117C6.34014 16.6284 6.50017 16.8155 6.57817 17.0377L7.18817 18.7945C7.25775 18.9932 7.39316 19.1646 7.57373 19.2825C7.7543 19.4004 7.9701 19.4583 8.18817 19.4473H12.1882C12.3978 19.4479 12.6023 19.3851 12.7728 19.268C12.9433 19.1508 13.0711 18.9852 13.1382 18.7945L13.7482 17.0377C13.8262 16.8155 13.9862 16.6284 14.1981 16.5117C14.4099 16.3949 14.6589 16.3567 14.8982 16.4041L16.7782 16.7689C16.9843 16.8101 17.1988 16.7877 17.3909 16.7049C17.583 16.6222 17.7431 16.4833 17.8482 16.3081L19.8482 12.9865C19.9543 12.8112 19.9999 12.608 19.9784 12.4062C19.9568 12.2044 19.8692 12.0144 19.7282 11.8633L18.3782 10.4809ZM16.8882 11.7673L17.6882 12.6313L16.4082 14.7625L15.2282 14.5321C14.5079 14.3908 13.7587 14.5083 13.1228 14.8622C12.4868 15.2161 12.0083 15.7819 11.7782 16.4521L11.3982 17.5273H8.83817L8.47817 16.4329C8.24802 15.7627 7.76955 15.1969 7.13357 14.843C6.4976 14.4891 5.74839 14.3716 5.02817 14.5129L3.84817 14.7433L2.54817 12.6217L3.34817 11.7577C3.84012 11.2297 4.1121 10.5462 4.1121 9.83774C4.1121 9.12932 3.84012 8.44576 3.34817 7.91774L2.54817 7.05374L3.82817 4.94174L5.00817 5.17214C5.72839 5.31347 6.4776 5.19602 7.11357 4.84209C7.74955 4.48815 8.22802 3.92237 8.45817 3.25214L8.83817 2.16734H11.3982L11.7782 3.26174C12.0083 3.93197 12.4868 4.49775 13.1228 4.85169C13.7587 5.20562 14.5079 5.32307 15.2282 5.18174L16.4082 4.95134L17.6882 7.08254L16.8882 7.94654C16.4017 8.47335 16.1331 9.15295 16.1331 9.85694C16.1331 10.5609 16.4017 11.2405 16.8882 11.7673ZM10.1182 6.00734C9.32704 6.00734 8.55368 6.23255 7.89589 6.6545C7.23809 7.07644 6.7254 7.67617 6.42265 8.37783C6.1199 9.0795 6.04069 9.8516 6.19503 10.5965C6.34937 11.3414 6.73033 12.0256 7.28974 12.5626C7.84915 13.0997 8.56188 13.4654 9.33781 13.6136C10.1137 13.7617 10.918 13.6857 11.6489 13.395C12.3798 13.1044 13.0045 12.6122 13.444 11.9807C13.8836 11.3492 14.1182 10.6068 14.1182 9.84734C14.1182 8.82891 13.6967 7.85219 12.9466 7.13205C12.1964 6.41191 11.179 6.00734 10.1182 6.00734ZM10.1182 11.7673C9.7226 11.7673 9.33593 11.6547 9.00703 11.4438C8.67813 11.2328 8.42178 10.9329 8.27041 10.5821C8.11903 10.2313 8.07943 9.84521 8.1566 9.47276C8.23377 9.10032 8.42425 8.75821 8.70395 8.48969C8.98366 8.22118 9.34002 8.03831 9.72799 7.96423C10.1159 7.89015 10.5181 7.92817 10.8835 8.07349C11.249 8.21881 11.5613 8.4649 11.7811 8.78064C12.0009 9.09639 12.1182 9.4676 12.1182 9.84734C12.1182 10.3566 11.9075 10.8449 11.5324 11.205C11.1573 11.5651 10.6486 11.7673 10.1182 11.7673Z" fill="#FFE66D"/>
</svg>
