<?xml version="1.0" standalone="no"?>
<!DOCTYPE svg PUBLIC "-//W3C//DTD SVG 20010904//EN"
 "http://www.w3.org/TR/2001/REC-SVG-20010904/DTD/svg10.dtd">
<svg version="1.0" xmlns="http://www.w3.org/2000/svg"
 width="1648.000000pt" height="1648.000000pt" viewBox="0 0 1648.000000 1648.000000"
 preserveAspectRatio="xMidYMid meet">
<metadata>
Created by potrace 1.14, written by Peter Selinger 2001-2017
</metadata>
<g transform="translate(0.000000,1648.000000) scale(0.100000,-0.100000)"
fill="#000000" stroke="none">
<path d="M5733 14019 c-12 -12 -132 -17 -150 -6 -5 4 -13 4 -16 1 -3 -3 -54
-6 -114 -6 -66 0 -114 -5 -122 -12 -12 -8 -13 -8 -7 2 4 6 2 12 -3 12 -6 0
-11 -6 -11 -12 0 -8 -3 -9 -8 -3 -9 13 -35 18 -27 5 3 -5 2 -10 -4 -10 -5 0
-12 4 -15 9 -6 10 -20 9 -48 -4 -10 -4 -16 -10 -14 -14 3 -3 -21 -6 -51 -6
-38 0 -59 -5 -67 -15 -7 -11 -30 -16 -69 -17 -43 -1 -63 -6 -74 -20 -13 -16
-14 -16 -9 0 3 9 1 17 -4 17 -6 0 -10 -7 -10 -15 0 -14 -44 -22 -89 -16 -7 2
-10 -3 -6 -9 4 -6 14 -9 24 -6 12 5 11 2 -3 -9 -14 -10 -22 -12 -27 -4 -5 8
-8 8 -13 0 -4 -6 -11 -9 -16 -6 -16 10 -41 -7 -35 -24 5 -12 4 -13 -6 -4 -7 7
-18 9 -28 4 -9 -5 -24 -7 -34 -6 -9 2 -22 -5 -27 -16 -7 -12 -21 -19 -41 -19
-21 0 -30 -4 -26 -13 3 -7 -3 -14 -12 -15 -9 -1 -25 -4 -36 -6 -11 -2 -26 -5
-34 -5 -11 -1 -10 -4 3 -14 17 -12 15 -13 -18 -11 -20 2 -36 -1 -36 -6 0 -6
-8 -10 -17 -11 -15 0 -15 -2 2 -9 16 -7 13 -9 -17 -9 -20 -1 -40 -6 -44 -13
-4 -7 -3 -8 4 -4 7 4 12 3 12 -3 0 -5 -19 -13 -42 -17 -39 -7 -41 -8 -18 -15
18 -5 20 -8 8 -9 -18 -3 -32 -5 -45 -10 -5 -1 -11 -2 -15 -1 -13 2 -9 -17 5
-23 8 -4 7 -5 -3 -5 -54 4 -84 -13 -42 -24 9 -3 0 -5 -20 -6 -20 0 -40 -6 -44
-13 -4 -7 -3 -8 4 -4 7 4 12 2 12 -3 0 -6 -9 -11 -21 -11 -15 0 -19 -5 -15
-16 3 -8 2 -12 -3 -9 -5 3 -12 1 -16 -5 -4 -6 -11 -8 -16 -5 -5 4 -9 1 -9 -5
0 -6 -5 -8 -12 -4 -6 4 -8 3 -5 -3 7 -11 -20 -28 -37 -24 -5 1 -6 -5 -3 -14 5
-10 0 -15 -14 -15 -11 0 -17 -5 -14 -10 7 -12 -35 -30 -50 -22 -5 3 -4 -1 3
-10 11 -14 8 -17 -17 -26 -16 -6 -32 -7 -36 -4 -4 4 -6 2 -5 -3 5 -23 -1 -34
-15 -28 -9 3 -15 2 -14 -3 4 -24 -3 -34 -23 -34 -18 0 -20 -2 -8 -9 8 -6 19
-7 25 -4 5 4 7 2 2 -2 -4 -5 -17 -10 -30 -12 -12 -2 -26 -8 -32 -14 -7 -7 -4
-8 8 -4 10 4 17 2 17 -4 0 -11 -20 -15 -50 -11 -10 1 -9 -3 5 -13 11 -9 17
-19 12 -23 -4 -4 -7 -2 -7 4 0 7 -4 12 -10 12 -5 0 -10 -11 -10 -25 0 -18 -4
-23 -15 -19 -10 4 -15 0 -15 -10 0 -9 -11 -21 -25 -26 -14 -5 -25 -12 -25 -15
0 -4 5 -3 10 0 6 3 10 2 10 -3 0 -6 -11 -13 -24 -16 -18 -4 -23 -12 -21 -31 2
-14 -2 -28 -7 -32 -6 -3 -8 -2 -5 3 3 6 2 16 -4 24 -6 11 -9 6 -9 -17 0 -17
-5 -35 -12 -39 -6 -4 -8 -3 -4 4 3 6 1 14 -5 18 -7 4 -9 3 -6 -3 3 -5 0 -20
-7 -34 -7 -13 -11 -31 -8 -39 2 -9 -3 -6 -11 5 l-16 20 0 -20 c-1 -41 -5 -54
-13 -49 -5 3 -6 9 -3 14 3 5 2 11 -3 14 -4 2 -9 -6 -10 -20 -5 -55 -7 -62 -15
-57 -5 3 -6 12 -3 20 4 8 2 11 -5 7 -6 -3 -9 -17 -6 -31 3 -17 1 -23 -9 -19
-7 3 -16 1 -19 -5 -4 -5 1 -12 10 -15 13 -5 14 -9 4 -15 -8 -5 -17 -3 -22 4
-4 7 -5 0 -1 -15 5 -21 2 -26 -12 -25 -12 1 -19 -5 -19 -18 0 -11 -6 -19 -13
-17 -9 2 -11 -2 -6 -10 5 -7 10 -22 12 -33 3 -20 3 -20 -14 0 -13 17 -15 17
-10 3 3 -10 1 -18 -4 -18 -5 0 -6 -8 -3 -17 5 -13 2 -15 -11 -10 -9 4 -15 3
-11 -2 3 -5 1 -12 -3 -15 -5 -3 -8 -19 -7 -36 1 -22 -2 -29 -14 -28 -10 2 -16
-5 -16 -17 0 -11 -4 -26 -9 -34 -6 -9 -5 -12 2 -8 6 5 8 0 5 -13 -3 -11 -12
-20 -19 -20 -8 0 -14 -10 -14 -26 0 -16 -4 -23 -12 -18 -7 5 -8 3 -2 -7 13
-21 15 -49 5 -49 -6 0 -8 9 -6 20 2 11 0 18 -5 15 -9 -6 -6 -37 6 -58 5 -7 0
-6 -11 3 -10 8 -16 10 -12 4 4 -7 0 -17 -7 -24 -8 -6 -13 -20 -11 -31 2 -10 0
-19 -5 -19 -5 0 -8 -9 -7 -19 1 -12 6 -17 17 -14 8 3 5 -2 -7 -11 -17 -12 -20
-22 -15 -39 10 -31 8 -67 -3 -65 -6 1 -9 8 -7 15 2 7 -1 13 -6 13 -12 0 -11
-32 2 -49 8 -11 8 -13 -1 -7 -9 5 -13 -1 -13 -23 0 -16 -6 -32 -12 -34 -10 -4
-10 -6 0 -6 6 -1 12 -8 12 -17 0 -14 -3 -14 -15 -4 -13 11 -14 10 -9 -4 3 -9
9 -16 13 -16 3 0 7 -12 8 -27 l1 -28 -15 25 c-8 14 -12 17 -9 8 3 -10 1 -20
-3 -23 -5 -3 -7 -26 -5 -51 4 -35 2 -44 -8 -38 -11 6 -11 5 0 -8 10 -12 10
-17 -1 -27 -8 -6 -17 -9 -20 -6 -4 3 -4 2 -1 -2 3 -5 11 -8 17 -8 8 0 12 -29
12 -93 0 -70 -3 -91 -12 -87 -8 3 -7 -6 4 -22 19 -29 19 -31 -6 -51 -9 -8 -11
-11 -5 -8 7 3 15 -1 18 -10 4 -10 2 -13 -7 -8 -9 5 -9 4 0 -6 10 -11 9 -16 -5
-27 -9 -8 -11 -12 -4 -8 13 7 13 8 16 -58 1 -38 -1 -46 -13 -42 -11 4 -12 3
-1 -10 7 -8 13 -38 14 -65 2 -41 -1 -50 -12 -45 -12 4 -13 3 -2 -10 18 -22 20
-93 2 -100 -11 -4 -12 -8 -2 -20 14 -17 21 -115 8 -115 -5 0 -6 5 -2 12 4 7 3
8 -5 4 -9 -6 -9 -11 0 -22 17 -21 18 -92 1 -99 -11 -4 -12 -8 -2 -20 14 -17
21 -115 8 -115 -5 0 -6 5 -2 12 4 7 3 8 -5 4 -9 -6 -9 -11 0 -22 14 -17 20
-834 6 -834 -5 0 -5 5 -1 12 4 7 3 8 -5 4 -9 -6 -9 -11 0 -22 14 -17 20 -114
7 -114 -5 0 -6 5 -2 12 4 7 3 8 -5 4 -9 -6 -9 -11 0 -23 14 -17 20 -233 6
-233 -5 0 -5 5 -1 12 4 7 3 8 -5 4 -9 -6 -9 -11 0 -22 14 -17 20 -114 7 -114
-5 0 -6 5 -2 12 4 7 3 8 -5 4 -9 -6 -9 -11 0 -22 14 -17 20 -114 7 -114 -5 0
-6 5 -2 12 4 7 3 8 -5 4 -9 -6 -9 -11 0 -22 14 -17 20 -114 7 -114 -5 0 -6 5
-2 12 4 7 3 8 -5 4 -9 -6 -9 -11 0 -22 14 -17 20 -114 7 -114 -5 0 -6 5 -2 12
4 7 3 8 -5 4 -9 -6 -9 -11 1 -23 9 -11 12 -87 13 -304 0 -159 -4 -289 -8 -289
-5 0 -5 5 -1 12 4 7 3 8 -5 4 -9 -6 -9 -11 0 -22 14 -17 20 -114 7 -114 -5 0
-6 5 -2 12 4 7 3 8 -5 4 -9 -6 -9 -11 0 -22 14 -17 20 -114 7 -114 -5 0 -6 5
-2 12 4 7 3 8 -5 4 -9 -6 -9 -11 1 -23 9 -11 12 -79 13 -264 0 -137 -3 -249
-7 -249 -4 0 -5 9 -3 20 3 13 0 18 -7 14 -8 -5 -9 -1 -4 12 6 15 5 16 -5 7
-10 -10 -9 -15 1 -28 7 -8 9 -15 5 -15 -4 0 -2 -7 6 -16 14 -18 21 -234 6
-234 -4 0 -5 5 -1 12 4 6 3 8 -3 5 -11 -7 -11 -52 0 -63 3 -4 4 4 2 16 -2 12
-1 20 2 16 10 -10 10 -266 0 -266 -4 0 -5 5 -1 12 4 7 3 8 -5 4 -9 -6 -9 -11
0 -23 14 -16 20 -233 8 -233 -5 0 -6 9 -4 20 3 13 0 18 -7 14 -8 -5 -9 -1 -4
12 6 15 5 16 -5 7 -10 -10 -9 -15 1 -28 7 -8 9 -15 5 -15 -4 0 -2 -7 5 -15 15
-18 22 -115 8 -115 -5 0 -6 5 -2 12 5 7 3 8 -5 4 -9 -6 -9 -12 3 -25 19 -20
20 -31 5 -31 -5 0 -7 5 -3 12 4 7 3 8 -5 4 -9 -6 -9 -11 0 -22 14 -17 20 -114
7 -114 -5 0 -6 5 -2 12 4 7 3 8 -5 4 -9 -6 -9 -11 0 -22 14 -17 20 -114 7
-114 -5 0 -6 5 -2 12 4 7 3 8 -5 4 -9 -6 -9 -11 0 -22 14 -17 20 -114 7 -114
-5 0 -6 5 -2 12 4 7 3 8 -5 4 -9 -6 -9 -11 0 -22 14 -17 20 -114 7 -114 -5 0
-6 5 -2 12 4 7 3 8 -5 4 -9 -6 -9 -11 0 -22 14 -17 20 -114 7 -114 -5 0 -6 5
-2 12 4 7 3 8 -5 4 -9 -6 -9 -11 0 -22 14 -17 20 -754 6 -754 -5 0 -5 5 -1 12
4 7 3 8 -5 4 -9 -6 -9 -11 0 -22 14 -17 20 -114 7 -114 -5 0 -6 5 -2 12 4 7 3
8 -5 4 -9 -6 -9 -11 0 -22 14 -17 20 -114 7 -114 -5 0 -6 5 -2 12 4 7 3 8 -5
4 -9 -6 -9 -11 0 -22 14 -17 20 -114 7 -114 -5 0 -6 5 -2 12 4 7 3 8 -5 4 -9
-6 -9 -11 0 -22 14 -17 20 -114 7 -114 -5 0 -6 5 -2 12 4 7 3 8 -5 4 -9 -6 -9
-11 0 -22 14 -17 20 -114 7 -114 -5 0 -6 5 -2 12 4 7 3 8 -5 4 -9 -6 -9 -11 0
-22 14 -17 20 -114 7 -114 -5 0 -6 5 -2 12 4 7 3 8 -5 4 -9 -6 -9 -11 0 -22
14 -17 20 -114 7 -114 -5 0 -6 5 -2 12 4 7 3 8 -5 4 -9 -6 -9 -11 0 -22 14
-17 20 -114 7 -114 -5 0 -6 5 -2 12 4 7 3 8 -5 4 -9 -6 -9 -11 0 -22 14 -17
20 -114 7 -114 -5 0 -6 5 -2 12 4 7 3 8 -5 4 -9 -6 -9 -11 0 -22 16 -19 20
-1395 4 -1386 -5 3 -5 -1 2 -9 8 -10 34 -14 106 -13 52 1 100 5 105 8 6 3 14
2 17 -4 5 -8 12 -7 23 2 13 11 14 11 7 -2 -7 -12 -6 -13 6 -5 8 6 29 10 47 9
22 -2 32 2 32 12 0 11 15 14 63 14 37 0 69 5 76 13 11 10 13 9 7 -1 -11 -18 5
-15 20 6 13 16 14 16 8 -1 -3 -9 -1 -17 5 -17 6 0 11 6 11 14 0 8 5 18 12 22
8 5 9 2 4 -11 -6 -17 -5 -17 11 -4 10 8 37 14 61 14 37 -1 46 5 44 26 -1 3 6
6 13 6 10 0 12 -4 5 -12 -7 -8 -5 -12 5 -12 8 0 15 7 15 14 0 8 6 13 13 12 37
-5 87 2 82 11 -4 6 -12 7 -18 4 -7 -4 -8 -3 -4 1 9 10 25 13 85 16 23 2 42 7
42 12 0 5 -7 7 -15 3 -8 -3 -15 -1 -15 4 0 6 3 10 8 11 42 4 62 3 62 -4 0 -4
5 -5 10 -2 6 4 7 11 4 17 -5 8 -1 9 11 4 14 -5 16 -4 7 7 -10 11 -6 14 21 15
55 2 66 5 64 16 -1 6 5 11 13 11 8 0 20 3 25 6 6 4 18 5 28 4 9 -2 15 1 11 6
-3 5 -9 7 -14 4 -5 -3 -12 0 -16 6 -5 9 2 10 24 6 17 -4 34 -2 37 3 3 5 11 8
18 6 7 -1 9 -1 5 1 -5 3 -8 9 -8 14 0 6 5 7 10 4 6 -3 10 -2 10 3 0 5 9 12 21
15 12 3 18 10 15 15 -7 12 13 10 33 -2 10 -6 12 -5 7 2 -5 8 1 12 17 12 26 0
82 52 70 65 -5 4 1 3 12 -3 15 -7 25 -7 38 3 13 10 15 14 5 18 -7 2 -1 8 15
12 15 4 27 13 27 21 0 8 5 14 11 14 6 0 8 -7 4 -17 -4 -13 -3 -15 5 -7 6 6 12
20 13 32 0 11 5 18 9 16 5 -3 6 -10 3 -15 -4 -5 -1 -9 4 -9 6 0 11 8 11 19 0
13 6 18 24 16 18 -2 23 1 19 11 -3 8 -10 11 -16 7 -6 -3 -7 -1 -3 5 5 9 13 9
28 1 19 -10 20 -9 16 13 -5 25 0 27 44 29 10 0 21 5 24 11 4 6 3 8 -2 5 -6 -3
-16 -1 -24 4 -13 9 -13 10 0 8 37 -4 52 1 46 17 -3 8 -2 12 4 9 6 -3 10 -1 10
4 0 6 3 10 8 10 21 -4 31 3 25 17 -4 11 -1 15 13 12 13 -2 19 3 18 14 -1 10 1
17 5 16 3 0 14 0 25 1 15 1 16 4 7 15 -8 10 -9 16 -1 21 5 3 10 1 10 -4 0 -6
5 -11 10 -11 6 0 10 8 10 19 0 11 9 21 21 24 13 4 20 11 16 20 -5 13 -1 15 42
19 11 1 17 6 14 11 -3 5 -11 6 -19 3 -8 -3 -11 0 -8 9 3 8 12 11 20 8 9 -3 14
2 14 16 0 12 5 21 11 21 5 0 8 -4 4 -9 -3 -5 -1 -13 5 -16 6 -4 10 -3 9 2 -6
33 3 53 22 53 19 0 20 2 8 17 -10 11 -10 14 -1 9 7 -4 12 -2 12 6 0 9 3 9 10
-2 5 -8 10 -12 11 -7 1 4 3 12 4 17 1 6 3 15 4 21 0 6 7 9 14 6 8 -3 14 0 15
6 1 10 7 41 12 57 1 3 5 -4 10 -15 8 -19 9 -19 9 3 1 12 0 25 -1 28 -2 4 7 10
20 15 14 6 22 17 22 33 0 13 7 26 15 30 8 3 15 16 15 28 0 18 2 20 9 8 6 -8 7
-19 4 -25 -4 -5 -2 -6 3 -2 9 9 11 14 13 48 1 14 6 19 15 16 17 -7 24 8 22 45
-1 19 2 24 10 17 14 -11 24 9 24 47 0 17 4 22 15 18 11 -5 15 1 15 22 0 16 5
36 11 44 8 11 9 9 3 -10 -6 -21 -5 -22 8 -10 8 8 13 31 13 51 -1 23 3 36 11
36 7 0 11 -4 8 -8 -2 -4 0 -10 5 -13 5 -4 8 5 6 19 -1 15 5 31 14 38 9 7 18
29 20 52 3 45 9 58 21 50 5 -3 11 -1 15 5 3 5 1 10 -6 10 -7 0 -5 8 7 22 10
12 14 19 8 15 -6 -3 -11 0 -11 8 0 9 7 14 16 13 11 -2 15 6 16 27 0 17 4 36 9
44 6 10 6 12 -2 7 -8 -4 -10 -2 -6 8 3 8 12 12 19 10 7 -3 13 1 12 8 -2 56 5
118 14 118 5 0 7 -6 3 -12 -4 -7 -3 -9 1 -5 12 10 16 39 5 32 -5 -3 -12 0 -16
6 -4 7 -3 9 3 6 18 -11 28 15 28 71 -1 36 3 52 12 52 7 0 13 5 13 11 0 6 -7 8
-17 4 -13 -4 -11 0 5 15 13 12 21 25 17 28 -3 4 -10 0 -15 -8 -7 -11 -10 -11
-10 -2 0 7 6 15 13 17 8 4 12 28 11 78 -1 39 3 80 8 91 7 12 7 16 0 12 -6 -3
-9 5 -8 19 0 15 6 23 13 21 7 -3 15 -1 18 5 4 5 3 9 -2 8 -28 -5 -39 28 -19
60 5 8 3 17 -5 22 -12 7 -11 9 1 9 13 0 13 1 0 10 -12 8 -10 10 10 11 22 1 23
2 5 7 -12 4 -19 15 -19 27 1 11 2 26 3 33 1 7 5 11 10 7 5 -3 13 0 17 6 4 7 3
9 -2 6 -6 -3 -16 -2 -24 3 -11 7 -11 13 3 34 16 24 16 25 0 19 -17 -7 -17 -6
0 20 13 20 14 25 3 21 -10 -4 -13 0 -11 13 2 10 4 24 4 31 1 7 5 11 10 7 5 -3
13 0 17 6 4 7 3 9 -2 6 -6 -3 -16 -2 -24 3 -11 7 -11 13 3 34 12 18 13 24 4
20 -8 -3 -14 2 -14 11 0 8 4 15 8 15 5 0 4 12 -2 26 -7 20 -6 32 6 50 12 19
13 22 1 18 -10 -4 -13 0 -11 13 2 10 4 24 4 31 1 7 5 11 10 7 5 -3 13 0 17 6
4 7 3 9 -2 6 -6 -3 -16 -2 -24 3 -11 7 -11 13 3 34 12 18 13 24 4 20 -8 -3
-14 2 -14 11 0 8 4 15 8 15 5 0 4 12 -2 26 -7 20 -6 32 6 50 11 17 11 22 2 18
-17 -6 -15 89 3 111 11 13 10 15 -2 10 -9 -4 -15 0 -15 10 0 8 4 15 8 15 5 0
5 7 2 17 -4 10 -2 14 5 9 6 -3 14 -1 18 5 4 7 3 9 -2 6 -6 -3 -16 -2 -24 3
-11 7 -11 13 3 34 12 18 13 24 4 20 -8 -3 -14 2 -14 11 0 8 4 15 8 15 5 0 5 7
2 17 -4 10 -2 14 5 9 6 -3 14 -1 18 5 4 7 3 9 -2 6 -6 -3 -16 -2 -23 2 -10 7
-10 13 -2 30 7 11 8 21 3 21 -5 0 -9 7 -9 15 0 8 4 15 8 15 5 0 5 7 2 17 -4
10 -2 14 5 9 6 -3 14 -1 18 5 4 7 3 9 -2 6 -6 -3 -16 -2 -23 2 -10 7 -10 13
-2 30 7 11 8 21 3 21 -5 0 -9 7 -9 15 0 8 4 15 8 15 5 0 5 7 2 17 -4 10 -2 14
5 9 6 -3 14 -1 18 5 4 7 3 9 -2 6 -6 -3 -16 -2 -24 3 -11 7 -11 13 3 34 12 18
13 24 4 20 -8 -3 -14 2 -14 11 0 8 4 15 8 15 5 0 5 7 2 17 -4 10 -2 14 5 9 6
-3 14 -1 18 5 4 7 3 9 -2 6 -6 -3 -16 -2 -24 3 -11 7 -11 13 3 34 12 18 13 24
4 20 -8 -3 -14 2 -14 11 0 8 4 15 8 15 5 0 5 7 2 17 -4 10 -2 14 5 9 6 -3 14
-1 18 5 4 7 3 9 -2 6 -6 -3 -16 -2 -23 2 -10 7 -10 13 -2 30 7 11 8 21 4 21
-5 0 -8 16 -8 37 1 28 6 38 24 45 12 4 19 12 16 18 -3 5 -1 10 4 10 6 0 11 -6
11 -13 0 -21 457 -18 470 3 8 13 10 13 10 -2 0 -13 8 -17 35 -16 30 1 33 3 23
17 -10 12 -7 12 8 -1 24 -21 45 -23 63 -5 11 10 12 9 6 -1 -5 -9 -1 -12 11
-10 11 2 22 10 26 18 5 12 7 11 7 -3 1 -22 42 -20 53 3 6 13 7 13 7 -1 1 -15
16 -17 114 -16 92 1 113 4 119 16 6 14 7 13 7 -1 1 -21 31 -24 49 -6 14 14 44
20 36 7 -3 -5 -10 -7 -15 -4 -5 4 -9 1 -9 -4 0 -6 11 -10 25 -9 14 1 24 7 21
13 -2 6 10 11 30 11 19 0 34 -4 34 -8 0 -5 -11 -6 -25 -4 -14 3 -25 1 -25 -4
0 -10 155 -8 165 2 3 3 -8 4 -25 3 -16 -1 -30 2 -30 7 0 5 6 8 13 5 6 -2 22 0
35 4 16 6 21 6 16 -2 -4 -7 0 -9 12 -5 11 3 51 6 89 7 39 1 75 4 80 8 17 9 35
10 29 0 -8 -13 10 -11 24 3 9 9 12 9 12 -1 0 -7 5 -9 10 -6 6 4 7 11 4 17 -4
6 -2 8 4 4 5 -3 13 0 16 6 4 7 4 3 2 -9 -3 -15 0 -20 10 -16 8 3 11 9 8 14 -6
10 -3 11 46 13 19 1 41 5 48 9 7 5 12 3 12 -4 0 -7 6 -4 14 7 11 14 28 19 73
21 68 2 100 7 109 16 4 3 -6 4 -22 1 -16 -3 -26 -3 -23 1 13 12 53 14 61 2 6
-9 8 -9 8 1 0 6 12 12 26 12 17 0 23 4 18 13 -6 9 -4 9 8 -1 11 -9 18 -10 23
-2 3 5 1 10 -4 10 -6 0 -11 3 -11 8 0 4 15 7 32 8 72 2 80 4 75 17 -3 9 4 14
22 14 55 2 89 7 85 15 -3 4 -11 5 -19 1 -8 -3 -15 0 -15 6 0 6 3 10 8 10 28
-5 92 3 92 11 0 5 -8 7 -17 4 -14 -5 -15 -4 -4 4 8 6 20 8 26 6 7 -3 15 2 19
11 4 12 10 14 25 5 17 -8 19 -7 16 8 -2 15 4 17 42 17 25 0 47 4 51 9 3 5 0 6
-5 3 -6 -4 -14 0 -17 9 -4 11 -2 15 6 11 20 -7 60 11 52 24 -4 7 -3 9 4 5 6
-3 14 -1 17 5 4 5 13 8 21 5 8 -3 14 1 14 8 0 16 27 29 41 20 5 -3 9 1 9 9 0
16 27 31 48 28 6 -1 12 5 12 14 0 9 7 15 16 13 10 -2 19 3 22 11 3 8 0 11 -7
7 -6 -4 -11 -5 -11 -2 0 3 9 10 19 16 17 9 19 7 16 -11 -3 -12 -1 -18 3 -15 7
7 8 11 11 39 1 8 4 7 11 -3 9 -15 11 -13 14 13 1 6 11 12 23 11 16 0 20 5 17
19 -2 15 1 18 16 14 23 -6 26 3 8 22 -11 10 -9 11 6 5 15 -6 17 -4 11 7 -8 12
-6 12 8 0 15 -12 17 -11 17 7 0 12 5 24 12 28 7 4 8 3 4 -4 -4 -7 -2 -12 3
-12 6 0 11 7 11 16 0 8 5 12 10 9 6 -3 10 -2 10 4 0 5 -3 11 -7 14 -5 2 -3 3
2 2 32 -7 53 16 57 62 1 7 5 10 9 7 5 -2 6 -12 3 -22 -3 -9 1 -6 9 8 9 14 13
28 10 32 -4 8 13 18 41 22 8 1 19 6 23 11 4 4 3 5 -4 1 -6 -3 -14 -2 -18 4 -3
5 1 10 9 10 10 0 16 9 17 23 l0 22 9 -22 c5 -13 12 -23 15 -23 4 0 4 4 1 9 -3
5 -1 23 5 40 9 24 14 29 24 21 10 -8 15 -8 21 1 4 7 3 9 -3 6 -6 -4 -10 6 -9
23 1 25 3 27 12 15 17 -23 27 -18 22 10 -3 15 1 30 10 37 10 8 13 9 9 1 -5 -8
-1 -8 18 0 17 8 20 13 10 15 -17 4 -20 22 -4 22 6 0 22 8 35 19 l23 18 -22 12
c-12 6 -14 9 -5 7 23 -7 41 17 26 32 -9 9 -7 12 11 12 16 0 21 4 17 15 -3 9 0
15 9 15 7 0 17 4 20 10 3 6 -1 7 -9 4 -9 -3 -16 -1 -16 5 0 10 22 16 45 11 6
-1 4 4 -2 11 -17 18 -16 29 3 29 8 0 12 5 9 10 -4 6 -12 7 -18 4 -7 -4 -8 -3
-4 2 5 5 14 9 20 9 5 0 12 6 15 14 3 9 0 11 -9 7 -8 -4 -5 -1 5 8 10 8 22 14
25 11 4 -2 8 7 9 21 1 13 2 35 3 49 1 14 6 25 11 25 5 0 7 -4 3 -9 -3 -5 -2
-12 3 -15 5 -3 9 0 9 7 1 7 2 31 4 55 1 24 6 38 10 31 4 -6 12 -8 18 -4 9 5 7
11 -6 22 -10 8 -13 12 -7 9 16 -8 35 59 20 75 -8 10 -7 10 6 0 10 -7 15 -18
11 -24 -3 -6 -1 -7 6 -3 6 4 9 12 6 17 -4 5 -1 9 6 9 7 0 4 6 -7 14 -17 13
-17 15 -2 21 10 4 14 13 11 23 -5 11 -2 14 8 10 12 -5 15 7 18 56 5 103 6 115
14 122 3 4 5 -3 2 -14 -2 -12 -1 -24 3 -26 9 -6 15 32 15 102 0 30 4 52 10 52
7 0 7 4 -1 12 -7 7 -12 16 -12 21 0 5 8 -1 18 -13 l18 -22 1 21 c1 13 -2 19
-9 15 -7 -5 -8 -2 -3 7 5 7 10 41 10 74 1 33 7 71 15 85 15 28 24 122 9 99 -5
-9 -9 -10 -9 -2 0 6 5 15 10 18 14 8 13 175 -1 175 -5 0 -8 4 -5 9 4 5 -2 8
-11 6 -10 -2 -18 -4 -18 -5 0 -1 -17 -3 -37 -4 -22 -1 -34 2 -31 7 4 6 1 7 -8
1 -19 -12 -79 -13 -72 -1 4 6 1 7 -8 1 -19 -12 -79 -13 -72 -1 4 6 1 7 -8 1
-8 -5 -44 -9 -82 -9 -51 0 -66 3 -62 12 3 10 -1 10 -18 0 -23 -15 -152 -18
-173 -4 -6 3 -14 3 -18 0 -13 -14 -38 -12 -32 3 5 12 2 12 -17 1 -23 -15 -152
-18 -173 -4 -6 3 -14 3 -18 0 -14 -15 -38 -11 -32 4 6 14 4 14 -10 2 -9 -7
-38 -14 -65 -14 -39 -1 -48 2 -44 13 5 13 3 13 -11 1 -9 -7 -38 -14 -65 -14
-39 -1 -48 2 -44 13 5 13 3 13 -11 1 -9 -7 -38 -14 -65 -14 -39 -1 -48 2 -44
13 5 13 3 13 -11 1 -22 -18 -116 -20 -110 -2 4 10 1 10 -17 0 -23 -15 -152
-18 -173 -4 -6 3 -14 3 -18 0 -14 -15 -38 -11 -32 4 6 14 4 14 -10 2 -9 -7
-38 -14 -65 -14 -39 -1 -48 2 -44 13 5 13 3 13 -11 1 -9 -7 -38 -14 -65 -14
-39 -1 -48 2 -44 13 5 13 3 13 -11 1 -9 -7 -38 -14 -65 -14 -39 -1 -48 2 -44
13 5 13 3 13 -11 1 -23 -19 -116 -20 -109 0 5 12 3 12 -11 0 -25 -20 -277 -21
-269 0 5 12 3 12 -11 0 -9 -7 -38 -14 -65 -14 -39 -1 -48 2 -44 13 5 13 3 13
-11 1 -9 -7 -38 -14 -65 -14 -39 -1 -48 2 -44 13 5 13 3 13 -11 1 -22 -18
-116 -20 -110 -2 4 10 1 10 -17 -1 -30 -18 -123 -15 -119 5 2 12 0 11 -10 -1
-18 -22 -261 -23 -253 -1 5 12 3 12 -11 0 -9 -7 -38 -14 -65 -14 -39 -1 -48 2
-44 13 5 13 3 13 -11 1 -20 -17 -226 -21 -216 -4 4 6 1 6 -9 -1 -20 -15 -65
-11 -61 6 3 11 0 11 -12 1 -11 -9 -16 -9 -22 0 -4 8 -3 9 4 5 7 -4 12 -3 12 3
0 5 -6 12 -12 14 -10 4 -10 6 0 6 6 1 12 6 12 12 0 5 -4 8 -8 5 -5 -3 -9 1 -9
10 0 10 7 12 20 8 17 -5 18 -4 6 9 -8 8 -17 13 -20 11 -3 -2 -6 3 -6 12 0 10
7 12 20 8 17 -5 18 -4 6 9 -8 8 -17 13 -20 11 -3 -2 -6 3 -6 12 0 10 7 12 20
8 17 -5 18 -4 6 9 -8 8 -17 13 -20 11 -3 -2 -6 3 -6 12 0 10 7 12 20 8 17 -5
18 -4 6 9 -8 8 -17 13 -20 11 -3 -2 -6 3 -6 12 0 10 7 12 20 8 17 -5 18 -4 6
9 -8 8 -17 13 -20 11 -3 -2 -6 3 -6 12 0 10 7 12 20 8 17 -5 18 -4 6 9 -8 8
-17 13 -20 11 -3 -2 -6 3 -6 12 0 10 7 12 20 8 17 -5 18 -4 6 9 -8 8 -17 13
-20 11 -3 -2 -6 3 -6 12 0 10 7 12 20 8 17 -5 18 -4 6 9 -8 8 -17 13 -20 11
-3 -2 -6 3 -6 12 0 10 7 12 20 8 17 -5 18 -4 6 9 -8 8 -17 13 -20 11 -3 -2 -6
3 -6 12 0 10 7 12 20 8 17 -5 18 -4 6 9 -8 8 -16 13 -19 12 -3 -2 -7 6 -7 17
-2 16 1 18 10 9 6 -6 16 -11 21 -11 7 0 8 3 1 8 -5 4 -17 16 -25 26 -14 18
-13 18 9 11 21 -6 22 -5 10 8 -8 8 -17 13 -21 11 -8 -5 -4 23 5 32 4 4 1 14
-6 22 -10 13 -8 14 12 7 21 -6 22 -5 10 8 -8 8 -17 13 -21 11 -8 -5 -5 17 5
33 4 6 3 14 -2 17 -5 4 -8 14 -6 24 2 9 4 21 4 25 1 5 5 6 10 2 5 -3 13 -1 16
5 4 6 3 10 -2 9 -20 -3 -30 2 -30 16 0 18 14 20 19 3 3 -8 7 -6 11 5 3 9 3 16
-1 16 -28 -4 -37 28 -18 60 5 8 3 16 -4 21 -9 6 -9 12 -1 29 7 11 8 21 3 21
-5 0 -9 7 -9 15 0 8 4 15 8 15 5 0 5 7 2 17 -4 10 -2 14 5 9 6 -3 14 -1 18 5
4 7 3 9 -2 6 -6 -3 -16 -2 -23 2 -10 7 -10 13 -2 30 7 11 8 21 3 21 -5 0 -9 7
-9 15 0 8 4 15 8 15 5 0 5 7 2 17 -4 10 -2 14 5 9 6 -3 14 -1 18 5 4 7 3 9 -2
6 -6 -3 -16 -2 -23 2 -10 7 -10 13 -2 30 7 11 8 21 3 21 -5 0 -9 7 -9 15 0 8
4 15 8 15 5 0 5 7 2 17 -4 10 -2 14 5 9 6 -3 14 -1 18 5 4 7 3 9 -2 6 -6 -3
-16 -2 -23 2 -10 7 -10 13 -2 30 7 11 8 21 3 21 -5 0 -9 7 -9 15 0 8 4 15 8
15 5 0 5 7 2 17 -4 10 -2 14 5 9 6 -3 14 -1 18 5 4 7 3 9 -2 6 -6 -3 -16 -2
-23 2 -10 7 -10 13 -2 30 7 11 8 21 3 21 -5 0 -9 7 -9 15 0 8 4 15 8 15 5 0 5
7 2 17 -4 10 -2 14 5 9 6 -3 14 -1 18 5 4 7 3 9 -2 6 -6 -3 -16 -2 -23 2 -10
7 -10 13 -2 30 7 11 8 21 3 21 -5 0 -9 7 -9 15 0 8 4 15 8 15 5 0 5 7 2 17 -4
10 -2 14 5 9 6 -3 14 -1 18 5 4 7 3 9 -2 6 -6 -3 -16 -2 -23 2 -10 7 -10 13
-2 30 7 11 8 21 3 21 -5 0 -9 7 -9 15 0 8 4 15 8 15 5 0 5 7 2 17 -4 10 -2 14
5 9 6 -3 14 -1 18 5 4 7 3 9 -2 6 -6 -3 -16 -2 -23 2 -10 7 -10 13 -2 30 7 11
8 21 3 21 -5 0 -9 7 -9 15 0 8 4 15 8 15 5 0 5 7 2 17 -5 12 -3 14 8 9 8 -4 6
-1 -4 7 -15 13 -16 19 -7 36 6 12 7 21 2 21 -5 0 -9 7 -9 15 0 8 4 15 8 15 5
0 5 7 2 17 -4 10 -2 14 5 9 6 -3 14 -2 17 4 4 6 3 10 -2 9 -24 -4 -33 3 -29
24 7 34 7 34 15 7 l7 -25 6 27 c3 15 2 26 -1 23 -4 -2 -13 0 -21 6 -13 7 -13
9 0 9 12 0 12 2 1 9 -10 6 -10 13 -2 29 8 15 8 22 -2 26 -6 4 -2 4 11 2 23 -4
28 4 12 20 -6 6 1 9 19 9 20 1 27 -3 24 -12 -6 -16 23 -17 33 -1 5 7 3 8 -6 3
-9 -5 -11 -4 -6 4 4 6 12 9 17 6 5 -4 9 0 9 7 0 8 3 9 8 3 4 -7 86 -10 220
-10 118 0 216 -3 218 -7 3 -4 -5 -5 -16 -3 -11 2 -20 0 -20 -4 0 -4 27 -8 60
-8 33 0 60 3 60 8 0 5 -8 6 -17 3 -15 -5 -15 -4 -3 4 8 6 18 8 22 6 4 -3 8 0
8 7 0 8 3 9 13 0 8 -6 18 -7 22 -3 5 4 5 2 1 -5 -4 -7 -13 -10 -21 -6 -8 3
-15 0 -15 -6 0 -18 38 -13 49 7 8 13 10 14 11 2 0 -12 15 -15 65 -17 36 0 63
2 61 6 -3 4 -21 7 -40 6 -20 -1 -36 1 -36 5 0 9 107 6 117 -3 4 -5 0 -5 -10
-1 -9 3 -17 2 -17 -4 0 -5 18 -9 40 -9 22 1 40 4 40 8 0 4 -9 6 -20 4 -11 -2
-20 0 -20 4 0 9 137 7 146 -2 4 -3 -3 -5 -15 -2 -11 2 -21 0 -21 -4 0 -5 27
-8 60 -7 46 0 59 4 55 14 -2 7 0 10 5 7 6 -3 10 -1 10 6 0 8 3 9 13 0 8 -6 18
-7 22 -3 5 4 5 2 1 -5 -4 -7 -13 -10 -21 -6 -8 3 -15 0 -15 -6 0 -18 38 -13
49 7 8 13 10 14 11 2 0 -12 14 -15 60 -16 33 -1 60 2 60 5 0 4 -16 7 -35 6
-19 -1 -35 1 -35 5 0 12 71 5 78 -7 8 -12 92 -13 92 -2 0 4 -9 6 -20 4 -11 -2
-20 -1 -20 3 0 5 36 8 79 7 44 0 77 -3 75 -7 -3 -4 -13 -5 -24 -3 -11 2 -20 0
-20 -4 0 -12 120 -8 121 4 1 5 1 14 0 18 -1 5 3 6 8 2 6 -3 8 -12 4 -20 -3 -8
0 -15 6 -15 6 0 11 6 11 13 0 10 17 13 59 13 33 -1 57 -4 54 -9 -2 -4 -9 -5
-14 -2 -5 4 -9 2 -9 -2 0 -5 52 -9 115 -9 63 -1 115 2 115 7 0 4 -11 6 -25 4
-14 -1 -25 1 -25 4 0 4 70 7 156 6 125 0 157 -3 164 -15 8 -13 10 -13 10 1 0
14 16 16 119 15 90 -1 117 -4 114 -13 -6 -16 23 -17 33 -1 5 7 3 8 -6 3 -9 -5
-11 -4 -6 4 4 6 12 9 17 6 5 -4 9 0 9 7 0 8 3 9 8 3 4 -7 83 -11 220 -10 118
0 216 -3 218 -7 3 -4 -5 -5 -16 -3 -11 2 -20 0 -20 -5 0 -5 12 -8 28 -7 15 1
27 8 27 14 0 22 14 25 27 4 13 -22 38 -29 38 -10 0 5 -5 7 -12 3 -7 -4 -8 -3
-4 5 4 6 12 9 17 6 5 -4 9 0 9 7 0 8 3 9 8 3 4 -7 71 -11 180 -10 96 0 175 -2
177 -6 3 -3 -16 -5 -40 -4 -25 2 -45 -1 -45 -4 0 -4 61 -8 135 -8 74 0 133 3
130 6 -2 4 -40 7 -84 6 -45 -1 -81 2 -81 5 0 8 217 6 225 -1 3 -4 -6 -5 -20
-4 -14 2 -25 0 -25 -4 0 -4 25 -8 55 -9 31 0 53 3 50 8 -3 5 -14 7 -25 5 -11
-2 -20 -1 -20 3 0 4 87 7 194 7 107 0 192 3 189 8 -2 4 1 7 6 7 6 0 11 -4 11
-9 0 -5 9 -7 20 -4 11 3 18 9 15 13 -3 5 -1 12 5 15 6 4 9 1 8 -5 -3 -14 69
-23 77 -10 2 4 -6 6 -19 5 -14 -2 -23 2 -23 11 0 9 4 11 12 4 7 -5 14 -8 17
-5 2 3 23 6 46 7 26 1 39 5 35 12 -4 8 -3 8 6 1 13 -13 83 -7 76 6 -3 4 -12 6
-20 2 -8 -3 -15 -1 -15 5 0 15 44 9 52 -8 5 -12 7 -11 7 4 1 14 7 17 26 14 14
-3 25 -2 25 1 0 3 20 6 45 5 24 -1 42 2 40 6 -3 4 2 13 10 20 12 10 15 10 15
-1 0 -7 7 -4 16 9 13 19 18 20 37 10 19 -10 20 -9 10 3 -10 12 -8 15 7 15 10
0 17 -4 14 -7 -2 -4 0 -11 6 -14 6 -4 9 -1 8 6 -2 7 2 13 9 14 6 0 15 3 18 7
4 4 17 3 29 -3 19 -9 19 -9 4 4 -25 20 -22 28 7 23 16 -3 28 1 34 11 12 23 41
26 35 5 -5 -14 -4 -14 6 1 6 9 20 17 30 17 14 0 18 5 13 18 -6 15 -5 15 10 3
10 -8 20 -11 24 -7 3 3 0 6 -7 6 -7 0 -10 3 -6 7 4 4 15 8 24 8 11 0 16 7 14
20 -2 12 0 16 5 8 11 -16 77 12 67 28 -4 8 -3 9 5 5 6 -4 9 -12 6 -17 -4 -5
-1 -9 4 -9 6 0 11 7 11 15 0 9 13 18 31 22 22 4 27 8 17 14 -10 7 -9 9 4 9 9
0 19 6 21 13 4 10 6 10 6 0 1 -7 6 -13 12 -13 5 0 7 5 4 10 -3 6 -1 10 5 10 6
0 8 5 5 10 -3 6 1 10 10 10 10 0 13 -5 9 -12 -5 -7 -3 -8 5 -3 7 4 11 15 8 25
-3 14 0 17 14 15 10 -2 21 1 24 6 4 5 11 7 16 4 5 -4 9 1 9 9 0 10 9 16 21 16
15 0 19 5 15 15 -4 11 1 15 19 15 14 0 25 5 25 11 0 5 6 7 13 3 6 -4 9 -4 6 0
-10 11 41 58 56 52 8 -3 11 2 8 13 -3 12 2 20 16 24 12 3 21 13 21 22 0 9 5
13 10 10 6 -4 8 -11 5 -16 -4 -5 -1 -9 4 -9 6 0 11 14 11 31 0 18 4 28 10 24
6 -4 7 -12 4 -18 -5 -9 -4 -9 5 -1 7 6 14 20 15 30 2 10 11 21 22 24 10 3 19
12 19 20 0 8 7 15 15 15 9 0 14 8 12 20 -4 20 -3 20 13 0 10 -13 15 -15 12 -5
-2 8 3 21 12 28 10 8 10 11 2 6 -10 -5 -12 -3 -7 5 5 7 15 10 23 7 12 -5 14
-1 10 14 -4 15 0 20 14 20 13 0 19 6 17 18 -2 11 3 17 15 16 11 -1 17 5 17 18
0 10 6 18 13 16 6 -2 13 2 15 7 1 6 -2 10 -7 10 -5 0 -13 4 -18 9 -4 5 -3 6 4
2 6 -3 14 -2 18 3 3 6 13 7 22 4 11 -4 14 -3 9 5 -4 7 -2 12 4 12 6 0 9 4 5 9
-3 5 -1 12 5 16 6 4 7 11 4 17 -5 8 -1 9 11 5 14 -6 16 -3 12 13 -5 18 3 25
25 21 5 0 7 2 7 7 -4 21 2 32 14 26 8 -5 8 -2 -2 9 -15 18 -2 24 15 7 8 -8 10
-2 9 20 -1 16 2 30 7 30 5 0 6 6 2 13 -5 7 0 6 11 -3 17 -14 18 -13 12 2 -3
10 -1 20 5 24 7 4 6 9 -3 15 -10 6 -8 9 9 9 15 0 22 6 22 19 0 10 7 21 15 25
8 3 15 13 15 21 0 10 5 13 13 9 8 -5 8 -2 -2 9 -13 16 -8 22 14 17 5 -1 2 7
-8 18 -14 15 -14 19 -2 19 8 0 11 -5 8 -10 -4 -6 -1 -7 6 -2 7 4 11 16 8 26
-4 16 3 23 23 21 5 -1 11 35 13 81 1 10 7 15 15 12 7 -2 10 0 7 5 -3 6 -2 10
3 10 5 0 8 11 6 25 -2 22 1 25 19 20 17 -5 18 -4 8 4 -16 10 -25 45 -10 35 5
-3 6 -11 3 -17 -4 -7 -3 -8 2 -4 8 7 14 40 15 79 0 10 5 21 11 24 6 4 8 2 4
-4 -3 -6 -3 -13 2 -16 8 -4 9 3 14 92 1 23 6 42 11 42 5 0 7 -7 3 -15 -3 -8
-1 -15 4 -15 6 0 10 14 10 31 0 20 4 28 12 23 7 -5 8 -3 2 7 -14 22 -12 76 3
76 9 0 10 -4 2 -13 -7 -8 -6 -14 2 -20 7 -4 9 -3 5 4 -3 6 -2 13 4 17 16 10
12 25 -7 25 -15 0 -15 1 2 13 10 8 15 19 11 25 -4 7 -1 12 6 12 8 0 9 3 3 8
-5 4 -11 15 -12 25 -1 13 4 17 16 14 15 -4 18 2 16 44 -1 27 1 49 4 49 3 0 6
43 6 96 -1 70 3 98 12 101 7 3 13 14 13 25 0 15 -5 19 -17 14 -17 -6 -17 -5 0
8 9 7 17 20 17 28 0 8 6 20 13 27 7 9 8 11 1 8 -9 -5 -12 19 -10 87 l1 94
-129 1 c-70 0 -130 2 -133 5 -3 3 -15 1 -28 -4 -13 -5 -26 -6 -29 -3 -12 12
-119 5 -127 -9 -7 -10 -9 -10 -9 0 0 7 -14 12 -36 12 -25 0 -33 -4 -28 -12 6
-10 4 -10 -7 0 -9 8 -51 12 -136 12 -92 0 -123 -3 -123 -12 0 -9 -3 -9 -9 1
-6 10 -26 14 -63 13 -202 -6 -293 -3 -290 10 2 8 -2 8 -15 -3 -12 -10 -27 -14
-43 -9 -32 8 -62 1 -53 -14 4 -6 -1 -5 -10 3 -17 13 -151 21 -163 9 -3 -3 -21
-2 -40 2 -19 4 -36 5 -38 1 -2 -3 -49 -4 -104 -1 -114 6 -135 3 -125 -13 4 -7
-1 -6 -10 2 -18 14 -107 22 -107 9 0 -4 -11 -3 -25 2 -13 5 -27 5 -30 1 -3 -5
-21 -5 -40 -1 -19 4 -37 5 -39 1 -2 -3 -50 -4 -106 -1 -55 3 -109 2 -118 -1
-9 -4 -21 -4 -26 -1 -5 3 -32 4 -60 4 -137 -4 -298 -3 -303 1 -3 3 -16 2 -29
-3 -14 -6 -26 -6 -29 0 -3 6 -15 6 -29 0 -13 -5 -27 -6 -30 -3 -3 3 -29 5 -58
5 -140 -4 -300 -3 -305 1 -3 3 -16 2 -29 -3 -14 -6 -26 -6 -29 0 -3 6 -15 6
-29 0 -13 -5 -27 -6 -30 -3 -12 12 -119 5 -127 -9 -6 -9 -9 -9 -9 -1 0 8 -40
12 -142 12 -78 1 -143 3 -146 5 -2 3 -14 1 -27 -4 -13 -5 -26 -6 -29 -3 -11
12 -117 5 -133 -9 -11 -8 -14 -8 -10 -1 6 9 -27 12 -134 12 -78 0 -143 2 -146
5 -3 2 -15 1 -28 -4 -13 -5 -25 -6 -29 -3 -4 4 -182 7 -193 3 -10 -3 -244 0
-250 3 -5 3 -17 1 -28 -3 -13 -5 -27 -2 -39 9 -11 9 -16 11 -13 5 8 -14 -30
-26 -39 -13 -3 5 -9 7 -13 5 -4 -3 -45 -5 -91 -6 -65 -2 -84 1 -82 11 2 9 -1
9 -14 -2 -19 -15 -51 -13 -73 4 -11 9 -13 9 -8 1 4 -7 -2 -14 -13 -17 -11 -3
-22 -2 -24 1 -2 4 -84 5 -181 2 -97 -3 -179 -2 -182 3 -2 4 -9 5 -14 1 -5 -3
-38 -6 -72 -6 -46 0 -61 3 -59 13 2 9 -1 9 -14 -2 -19 -15 -51 -13 -73 4 -11
9 -13 9 -8 1 7 -11 -27 -27 -36 -17 -4 3 -256 6 -272 3 -9 -2 -85 -2 -92 0 -5
1 -12 1 -18 0 -36 -7 -130 -1 -127 9 3 14 -1 14 -15 0z m-483 -40 c0 -5 -4 -9
-10 -9 -5 0 -10 5 -10 11 0 5 -5 7 -12 3 -7 -4 -8 -3 -4 4 7 12 36 5 36 -9z
m6634 -504 c3 -8 1 -15 -4 -15 -6 0 -10 7 -10 15 0 8 2 15 4 15 2 0 6 -7 10
-15z m-7934 -115 c0 -5 -5 -10 -11 -10 -5 0 -7 5 -4 10 3 6 8 10 11 10 2 0 4
-4 4 -10z m-30 -40 c0 -5 -2 -10 -4 -10 -3 0 -8 5 -11 10 -3 6 -1 10 4 10 6 0
11 -4 11 -10z m7764 -475 c-4 -8 -8 -15 -10 -15 -2 0 -4 7 -4 15 0 8 4 15 10
15 5 0 7 -7 4 -15z m-72 -137 c-7 -7 -12 -8 -12 -2 0 14 12 26 19 19 2 -3 -1
-11 -7 -17z m-8187 -68 c-3 -5 -11 -10 -16 -10 -6 0 -7 5 -4 10 3 6 11 10 16
10 6 0 7 -4 4 -10z m-125 -310 c0 -11 -4 -20 -9 -20 -7 0 -8 17 -2 38 4 10 11
-2 11 -18z m-10 -40 c0 -5 -5 -10 -11 -10 -5 0 -7 5 -4 10 3 6 8 10 11 10 2 0
4 -4 4 -10z m-60 -350 c0 -5 -5 -10 -11 -10 -5 0 -7 5 -4 10 3 6 8 10 11 10 2
0 4 -4 4 -10z m7165 -279 c3 -5 2 -12 -3 -15 -5 -3 -9 1 -9 9 0 17 3 19 12 6z
m-161 -72 c-3 -5 -14 -7 -24 -6 -31 5 -31 12 1 13 16 1 26 -2 23 -7z m-3900
-100 c-3 -5 -10 -7 -15 -3 -5 3 -7 10 -3 15 3 5 10 7 15 3 5 -3 7 -10 3 -15z
m156 5 c0 -8 -19 -13 -24 -6 -3 5 1 9 9 9 8 0 15 -2 15 -3z m330 2 c0 -11 -19
-15 -25 -6 -3 5 1 10 9 10 9 0 16 -2 16 -4z m150 -2 c0 -8 -19 -13 -24 -6 -3
5 1 9 9 9 8 0 15 -2 15 -3z m124 -2 c3 -5 -1 -9 -9 -9 -8 0 -15 4 -15 9 0 4 4
8 9 8 6 0 12 -4 15 -8z m236 2 c0 -8 -19 -13 -24 -6 -3 5 1 9 9 9 8 0 15 -2
15 -3z m295 -2 c-8 -8 -124 -8 -119 0 2 3 31 6 64 6 33 -1 58 -3 55 -6z m1690
-2351 c-2 -9 -4 -19 -4 -23 -1 -5 -6 -8 -12 -8 -8 0 -8 4 0 13 7 9 7 17 0 24
-6 6 -5 10 5 10 7 0 12 -7 11 -16z m-100 -511 c-3 -5 -12 -10 -18 -10 -7 0 -6
4 3 10 19 12 23 12 15 0z m-131 -341 c-3 -5 -10 -7 -15 -3 -5 3 -7 10 -3 15 3
5 10 7 15 3 5 -3 7 -10 3 -15z m-139 -249 c-3 -5 -12 -10 -18 -10 -7 0 -6 4 3
10 19 12 23 12 15 0z m-2640 -989 c3 -5 2 -12 -3 -15 -5 -3 -9 1 -9 9 0 17 3
19 12 6z m80 -3 c5 4 5 1 1 -5 -10 -18 -23 -16 -30 3 -5 13 -4 14 7 6 8 -7 18
-8 22 -4z m-515 -10 c0 -11 -12 -10 -30 2 -12 7 -10 9 8 7 12 0 22 -5 22 -9z
m40 2 c0 -5 -2 -10 -4 -10 -3 0 -8 5 -11 10 -3 6 -1 10 4 10 6 0 11 -4 11 -10z
m54 1 c-8 -8 -43 -8 -38 0 2 4 13 7 24 6 10 -1 17 -3 14 -6z m56 -1 c0 -5 -5
-10 -11 -10 -5 0 -7 5 -4 10 3 6 8 10 11 10 2 0 4 -4 4 -10z m40 4 c0 -8 -19
-13 -24 -6 -3 5 1 9 9 9 8 0 15 -2 15 -3z m40 0 c0 -8 -19 -13 -24 -6 -3 5 1
9 9 9 8 0 15 -2 15 -3z m74 -3 c-8 -9 -44 -11 -44 -3 0 4 11 8 25 8 13 0 22
-2 19 -5z m66 -1 c-18 -12 -30 -13 -30 -2 0 4 10 9 22 9 18 2 20 0 8 -7z m310
4 c0 -8 -19 -13 -24 -6 -3 5 1 9 9 9 8 0 15 -2 15 -3z m104 -3 c-8 -9 -44 -11
-44 -3 0 4 11 8 25 8 13 0 22 -2 19 -5z m66 -1 c-18 -12 -30 -13 -30 -2 0 4
10 9 22 9 18 2 20 0 8 -7z m70 4 c0 -8 -19 -13 -24 -6 -3 5 1 9 9 9 8 0 15 -2
15 -3z m180 -2 c0 -4 -9 -8 -20 -9 -11 -1 -20 2 -20 5 0 4 9 8 20 9 11 1 20
-2 20 -5z m-1345 -2372 c3 -6 -1 -7 -9 -4 -18 7 -21 14 -7 14 6 0 13 -4 16
-10z m-78 -172 c-3 -8 -6 -5 -6 6 -1 11 2 17 5 13 3 -3 4 -12 1 -19z m-152
-288 c3 -6 -1 -7 -9 -4 -18 7 -21 14 -7 14 6 0 13 -4 16 -10z m-170 -230 c3
-5 1 -10 -4 -10 -6 0 -11 5 -11 10 0 6 2 10 4 10 3 0 8 -4 11 -10z m-638 -582
c-3 -8 -6 -5 -6 6 -1 11 2 17 5 13 3 -3 4 -12 1 -19z m-65 -40 c-14 -14 -44
-20 -36 -7 3 5 9 7 14 4 5 -3 11 -1 15 5 3 5 9 10 13 10 3 0 1 -5 -6 -12z
m-171 -91 c-10 -9 -11 -8 -5 6 3 10 9 15 12 12 3 -3 0 -11 -7 -18z m-121 -47
c0 -5 -2 -10 -4 -10 -3 0 -8 5 -11 10 -3 6 -1 10 4 10 6 0 11 -4 11 -10z
m-730 -196 c0 -8 -19 -13 -24 -6 -3 5 1 9 9 9 8 0 15 -2 15 -3z"/>
<path d="M5036 13961 c-4 -5 1 -8 9 -7 21 3 31 16 12 16 -9 0 -18 -4 -21 -9z"/>
<path d="M11915 13665 c2 -61 10 -65 12 -4 0 27 -3 49 -7 49 -4 0 -6 -20 -5
-45z"/>
<path d="M4110 13546 c0 -2 7 -7 16 -10 8 -3 12 -2 9 4 -6 10 -25 14 -25 6z"/>
<path d="M11845 13260 c-3 -6 1 -7 9 -4 18 7 21 14 7 14 -6 0 -13 -4 -16 -10z"/>
<path d="M11791 13044 c0 -11 3 -14 6 -6 3 7 2 16 -1 19 -3 4 -6 -2 -5 -13z"/>
<path d="M3235 12200 c-3 -5 -1 -10 4 -10 6 0 11 5 11 10 0 6 -2 10 -4 10 -3
0 -8 -4 -11 -10z"/>
<path d="M3170 11805 c0 -5 5 -17 10 -25 5 -8 10 -10 10 -5 0 6 -5 17 -10 25
-5 8 -10 11 -10 5z"/>
<path d="M10630 11739 c0 -5 5 -7 10 -4 6 3 10 8 10 11 0 2 -4 4 -10 4 -5 0
-10 -5 -10 -11z"/>
<path d="M3169 11708 c-7 -23 -4 -35 7 -35 9 0 11 4 4 12 -5 7 -7 15 -3 18 3
4 3 7 0 7 -4 0 -7 -1 -8 -2z"/>
<path d="M3173 11623 c4 -3 1 -13 -6 -22 -11 -14 -10 -14 5 -2 16 12 16 31 1
31 -4 0 -3 -3 0 -7z"/>
<path d="M10296 11612 c-3 -5 1 -9 9 -9 8 0 12 4 9 9 -3 4 -7 8 -9 8 -2 0 -6
-4 -9 -8z"/>
<path d="M8726 11487 c3 -10 9 -15 12 -12 3 3 0 11 -7 18 -10 9 -11 8 -5 -6z"/>
<path d="M5870 11480 c0 -5 5 -10 10 -10 6 0 10 5 10 10 0 6 -4 10 -10 10 -5
0 -10 -4 -10 -10z"/>
<path d="M5900 11478 c0 -4 9 -8 20 -8 11 0 20 4 20 8 0 4 -9 8 -20 8 -11 0
-20 -4 -20 -8z"/>
<path d="M5950 11481 c0 -3 18 -7 40 -7 22 -1 40 2 40 5 0 3 -18 7 -40 7 -22
1 -40 -2 -40 -5z"/>
<path d="M6046 11481 c-3 -4 43 -7 100 -7 57 -1 102 2 98 5 -8 8 -193 10 -198
2z"/>
<path d="M6700 11480 c0 -6 7 -10 15 -10 8 0 15 2 15 4 0 2 -7 6 -15 10 -8 3
-15 1 -15 -4z"/>
<path d="M7180 11480 c0 -6 7 -10 15 -10 8 0 15 2 15 4 0 2 -7 6 -15 10 -8 3
-15 1 -15 -4z"/>
<path d="M7380 11478 c0 -4 16 -7 35 -6 19 1 35 4 35 7 0 4 -16 7 -35 7 -19 0
-35 -4 -35 -8z"/>
<path d="M7725 11480 c-2 -3 27 -6 66 -7 38 0 69 3 69 6 0 8 -130 9 -135 1z"/>
<path d="M7875 11480 c-2 -3 14 -6 36 -6 21 -1 39 2 39 5 0 8 -70 9 -75 1z"/>
<path d="M7980 11480 c0 -3 43 -6 95 -6 52 0 95 2 95 5 0 3 -43 6 -95 7 -52 0
-95 -2 -95 -6z"/>
<path d="M8270 11480 c0 -5 5 -10 11 -10 5 0 7 5 4 10 -3 6 -8 10 -11 10 -2 0
-4 -4 -4 -10z"/>
<path d="M8300 11478 c0 -4 9 -8 20 -8 11 0 20 4 20 8 0 4 -9 8 -20 8 -11 0
-20 -4 -20 -8z"/>
<path d="M8355 11481 c-2 -3 14 -7 36 -7 21 -1 39 2 39 6 0 8 -69 9 -75 1z"/>
<path d="M8445 11480 c-2 -3 30 -6 71 -6 41 0 74 2 74 5 0 8 -140 9 -145 1z"/>
<path d="M8600 11481 c0 -5 11 -8 25 -8 30 0 28 6 -4 12 -11 2 -21 0 -21 -4z"/>
<path d="M8790 11478 c0 -4 7 -8 15 -8 8 0 15 4 15 8 0 5 -7 9 -15 9 -8 0 -15
-4 -15 -9z"/>
<path d="M8835 11481 c-2 -3 14 -7 36 -7 21 -1 39 2 39 6 0 8 -69 9 -75 1z"/>
<path d="M8925 11481 c-2 -4 16 -7 41 -7 24 -1 44 2 44 5 0 8 -80 10 -85 2z"/>
<path d="M9020 11479 c0 -5 10 -9 22 -9 12 0 18 3 14 7 -10 11 -36 12 -36 2z"/>
<path d="M9470 11480 c0 -4 18 -7 40 -7 22 1 40 3 40 7 0 3 -18 6 -40 6 -22 1
-40 -2 -40 -6z"/>
<path d="M9585 11480 c-5 -8 62 -7 69 1 3 2 -11 5 -30 5 -20 0 -37 -3 -39 -6z"/>
<path d="M9706 11482 c-3 -5 1 -9 9 -9 8 0 12 4 9 9 -3 4 -7 8 -9 8 -2 0 -6
-4 -9 -8z"/>
<path d="M11873 11449 c-7 -7 -32 -12 -57 -13 -25 0 -42 -4 -39 -10 4 -5 1 -6
-8 -1 -23 15 -49 13 -47 -3 2 -8 -3 -16 -10 -18 -7 -1 -8 0 -3 2 6 3 7 12 4
20 -4 12 -8 12 -20 -3 -8 -10 -12 -13 -9 -6 4 6 2 14 -4 18 -5 3 -10 -1 -10
-9 0 -8 -5 -18 -12 -22 -8 -5 -9 -2 -5 10 4 9 3 15 -2 11 -5 -3 -12 1 -15 7
-3 7 -4 4 -1 -7 4 -17 -1 -20 -30 -22 -23 -1 -33 2 -29 9 4 5 -5 3 -19 -7 -17
-11 -27 -13 -32 -5 -5 8 -11 8 -21 -1 -8 -6 -14 -8 -14 -3 0 5 -7 0 -16 -11
-8 -11 -17 -19 -19 -17 -3 1 -23 2 -45 2 -29 0 -40 -4 -40 -15 0 -8 -4 -15
-10 -15 -5 0 -8 6 -6 13 1 6 1 8 -2 4 -2 -4 -11 -2 -20 5 -14 10 -15 10 -4 -2
14 -16 16 -34 3 -26 -5 3 -29 3 -54 0 -32 -5 -44 -10 -40 -20 3 -9 -2 -12 -17
-9 -16 3 -20 0 -16 -10 3 -8 1 -17 -5 -20 -5 -4 -9 -3 -8 2 3 19 -2 33 -12 33
-6 0 -9 -7 -6 -14 6 -14 -19 -29 -39 -25 -20 3 -34 -2 -32 -12 3 -12 -17 -18
-64 -21 -26 -1 -26 -2 -10 -15 16 -14 16 -14 0 -9 -10 3 -20 1 -23 -4 -3 -5
-13 -6 -22 -3 -12 5 -15 2 -11 -9 6 -14 -2 -18 -44 -19 -11 0 -18 -8 -18 -20
0 -15 -7 -19 -35 -19 -29 0 -33 -3 -28 -17 6 -16 5 -17 -12 -3 -11 9 -16 10
-11 3 4 -8 2 -13 -4 -13 -7 0 -10 -6 -7 -13 3 -8 0 -14 -6 -14 -22 -1 -40 -8
-57 -23 -9 -8 -25 -21 -36 -28 -10 -7 -13 -10 -5 -6 9 5 12 3 7 -5 -4 -6 -11
-9 -16 -6 -11 7 -32 -20 -22 -30 4 -5 1 -5 -6 -1 -7 4 -10 12 -7 17 4 5 1 9
-4 9 -6 0 -11 -9 -11 -20 0 -13 -7 -20 -20 -20 -11 0 -20 -7 -20 -15 0 -8 -7
-15 -15 -15 -8 0 -15 -6 -15 -14 0 -7 -9 -16 -20 -19 -11 -3 -19 -11 -18 -19
2 -7 -3 -12 -10 -10 -8 1 -16 -7 -19 -18 -3 -11 -10 -20 -15 -20 -5 0 -6 6 -2
13 5 9 4 9 -6 0 -11 -10 -11 -15 0 -28 7 -9 9 -15 4 -14 -28 5 -44 -3 -44 -21
0 -14 -6 -20 -17 -18 -12 2 -17 -3 -16 -15 1 -13 -4 -17 -16 -14 -16 4 -19 -2
-23 -49 -1 -6 -7 -11 -15 -12 -7 -1 -20 -3 -28 -4 -8 -1 -12 -5 -9 -9 4 -7
-14 -24 -28 -24 -3 0 -10 -3 -14 -7 -3 -4 3 -6 14 -3 12 2 23 -3 26 -11 4 -10
-1 -13 -18 -10 -14 3 -23 -1 -23 -9 0 -7 7 -11 16 -8 9 2 5 -2 -9 -10 -14 -9
-28 -13 -33 -10 -4 2 -7 1 -6 -4 8 -44 -14 -88 -23 -45 -3 12 -6 9 -10 -10 -3
-17 -1 -25 5 -21 5 3 8 0 6 -6 -3 -7 -7 -11 -10 -9 -3 2 -13 -3 -22 -10 -17
-14 -12 -46 6 -35 6 4 7 1 3 -6 -5 -7 -11 -10 -14 -7 -3 3 -13 -1 -23 -10 -15
-13 -16 -21 -8 -36 8 -15 8 -19 0 -14 -7 4 -11 -1 -11 -13 0 -12 -5 -21 -11
-21 -5 0 -7 6 -3 13 4 7 3 8 -2 4 -8 -7 -13 -38 -17 -104 0 -12 -5 -19 -9 -17
-5 3 -6 9 -4 13 3 4 0 8 -7 8 -7 0 -12 -10 -12 -23 0 -12 3 -20 7 -18 4 3 5
-2 2 -10 -3 -9 -10 -14 -14 -11 -13 8 -8 -39 5 -47 6 -5 3 -8 -7 -8 -9 0 -18
8 -21 18 -2 9 -5 1 -5 -18 -3 -94 -6 -120 -15 -120 -5 0 -7 7 -3 15 3 8 2 15
-3 15 -5 0 -10 -19 -11 -42 -1 -41 -5 -83 -8 -102 -1 -5 -10 -2 -19 5 -16 13
-17 12 -4 -3 7 -10 17 -15 22 -12 5 2 8 -11 7 -31 -1 -20 -4 -38 -8 -40 -4 -3
-6 8 -4 24 2 20 -2 31 -14 36 -13 5 -14 3 -6 -5 7 -7 9 -25 5 -43 -3 -18 -6
-71 -6 -119 1 -52 -3 -84 -9 -81 -5 4 -6 1 -1 -8 5 -7 9 -52 10 -99 1 -66 -2
-88 -14 -98 -14 -11 -14 -12 0 -7 14 5 16 -5 14 -72 -1 -43 -3 -82 -5 -88 -1
-5 -1 -12 0 -15 7 -16 5 -258 -3 -253 -5 3 -4 -3 2 -14 7 -14 7 -24 -2 -33 -7
-7 -7 -10 -1 -7 17 10 13 -56 -5 -71 -15 -11 -14 -12 0 -6 13 4 16 -1 16 -28
-1 -18 -8 -39 -17 -46 -13 -11 -13 -11 1 -7 12 5 16 -2 16 -29 0 -31 -2 -34
-16 -23 -14 11 -14 10 -2 -6 17 -22 22 -75 10 -99 -5 -10 -5 -19 0 -22 10 -7
9 -112 -2 -122 -4 -4 -7 -12 -7 -18 0 -6 5 -4 10 4 7 11 9 3 8 -27 -1 -37 -3
-41 -17 -30 -14 11 -15 10 -1 -7 18 -23 24 -246 6 -246 -7 0 -8 -3 -1 -8 14
-9 16 -74 2 -65 -6 4 -7 1 -1 -8 11 -18 13 -291 2 -306 -5 -7 -5 -14 2 -18 7
-4 7 -12 0 -25 -6 -11 -6 -21 -1 -24 11 -7 9 -116 -3 -135 -6 -9 -5 -12 1 -8
5 3 9 -31 9 -88 0 -64 -3 -92 -10 -88 -6 4 -5 0 1 -8 10 -12 10 -18 0 -29 -9
-10 -9 -11 1 -6 7 5 12 1 12 -9 0 -10 -5 -13 -12 -9 -7 5 -8 3 -3 -6 13 -21
15 -131 2 -123 -6 4 -7 1 -1 -8 13 -21 13 -123 0 -131 -7 -5 -7 -8 3 -8 11 0
11 -3 0 -17 -10 -11 -10 -14 -1 -9 7 4 12 1 12 -9 0 -10 -5 -13 -12 -9 -7 5
-8 3 -2 -7 14 -23 16 -51 2 -43 -7 5 -8 3 -2 -7 13 -22 16 -81 2 -73 -7 5 -8
3 -2 -7 13 -21 13 -123 0 -131 -8 -5 -7 -8 3 -8 11 0 11 -3 0 -17 -10 -11 -10
-14 -1 -9 7 4 12 1 12 -9 0 -10 -5 -13 -12 -9 -7 5 -8 3 -2 -7 14 -23 16 -51
2 -43 -7 5 -8 3 -2 -7 13 -22 16 -81 2 -73 -7 5 -8 3 -2 -7 13 -21 13 -123 0
-131 -7 -5 -7 -8 3 -8 11 0 11 -3 0 -17 -10 -11 -10 -14 -1 -9 7 4 12 1 12 -9
0 -10 -5 -13 -12 -9 -7 5 -8 3 -2 -7 14 -23 16 -51 2 -43 -7 5 -8 3 -2 -7 13
-21 13 -249 0 -249 -7 0 -7 -3 -1 -8 14 -10 17 -32 5 -32 -6 0 -10 -5 -10 -11
0 -5 5 -7 10 -4 6 3 10 -1 10 -10 0 -10 -5 -13 -12 -9 -7 5 -8 3 -2 -7 13 -21
13 -113 0 -121 -6 -5 -7 -8 -1 -8 18 0 13 -213 -5 -236 -13 -17 -13 -18 1 -7
13 11 15 0 15 -102 0 -67 -4 -111 -10 -108 -5 4 -6 1 -1 -7 13 -22 15 -130 2
-130 -8 0 -8 -3 -2 -8 14 -10 17 -32 5 -32 -6 0 -10 -5 -10 -11 0 -5 5 -7 10
-4 6 3 10 -1 10 -10 0 -10 -5 -13 -12 -9 -7 5 -8 3 -2 -7 13 -21 13 -79 0 -79
-7 0 -7 -3 -1 -8 14 -10 17 -32 5 -32 -6 0 -10 -5 -10 -11 0 -5 5 -7 10 -4 6
3 10 -1 10 -10 0 -9 -4 -14 -8 -11 -5 3 -9 -1 -9 -9 0 -8 3 -12 7 -10 3 2 6
-21 7 -51 0 -30 -4 -54 -8 -54 -5 0 -9 -5 -9 -11 0 -5 5 -7 10 -4 6 4 9 -3 6
-17 -2 -13 1 -29 6 -35 7 -9 7 -13 0 -13 -7 0 -9 -15 -7 -37 2 -21 -1 -43 -6
-50 -7 -7 -6 -14 1 -18 6 -4 7 -12 0 -24 -6 -12 -5 -22 2 -29 8 -8 7 -16 -3
-28 -8 -10 -9 -15 -3 -12 6 4 10 -6 11 -28 1 -19 -4 -34 -10 -34 -8 0 -9 -3
-2 -8 13 -9 16 -132 4 -132 -5 0 -9 -5 -9 -11 0 -5 5 -7 10 -4 12 7 9 -23 -4
-44 -6 -9 -5 -12 2 -7 7 4 10 -4 10 -24 -1 -16 -6 -30 -12 -30 -7 0 -7 -3 -1
-8 14 -10 17 -32 5 -32 -5 0 -10 -5 -10 -11 0 -5 5 -7 10 -4 6 3 10 -1 10 -10
0 -9 -4 -14 -8 -11 -5 3 -9 -1 -9 -9 0 -8 4 -12 8 -9 10 6 6 -47 -5 -65 -6 -9
-5 -12 2 -7 7 4 10 -1 9 -14 -1 -11 -5 -20 -9 -20 -4 0 -8 -5 -8 -11 0 -5 5
-7 10 -4 6 3 10 -1 10 -10 0 -9 -4 -14 -8 -11 -5 3 -9 -1 -9 -9 0 -8 3 -12 7
-10 11 7 7 -100 -4 -107 -7 -5 -7 -8 -1 -8 13 0 14 -239 1 -259 -6 -10 -6 -12
2 -7 7 4 12 1 12 -9 0 -10 -5 -13 -12 -9 -7 5 -8 3 -2 -7 13 -21 14 -39 1 -39
-8 0 -8 -3 -2 -8 14 -9 16 -74 2 -65 -6 4 -7 1 -2 -8 14 -21 14 -179 1 -179
-7 0 -7 -3 -1 -8 14 -10 17 -32 5 -32 -5 0 -10 -5 -10 -11 0 -5 5 -7 10 -4 6
3 10 -1 10 -10 0 -10 -5 -13 -12 -9 -10 6 -10 4 -2 -7 14 -19 17 -72 3 -63 -8
4 -8 1 -2 -12 12 -23 11 -94 -1 -113 -6 -9 -5 -12 1 -8 5 4 10 -12 10 -38 1
-31 -3 -43 -11 -38 -6 4 -5 -1 2 -10 8 -9 11 -20 9 -24 -3 -5 3 -9 13 -9 14 0
16 3 8 13 -8 10 -7 12 6 7 9 -3 16 -9 16 -13 0 -4 20 -7 44 -7 35 1 42 4 34
14 -8 9 -7 11 7 6 14 -6 16 -4 10 7 -7 11 -6 12 7 2 8 -7 18 -10 22 -6 9 9 46
11 41 2 -3 -4 2 -9 10 -12 8 -4 12 -1 9 7 -3 9 13 12 66 12 56 -1 69 2 65 13
-4 11 -3 12 10 1 8 -7 21 -10 29 -7 7 3 19 0 25 -6 9 -9 11 -8 5 6 -3 10 -12
16 -19 13 -6 -2 -17 -1 -24 3 -7 5 6 8 28 8 27 0 38 -4 34 -11 -5 -8 -3 -8 8
0 8 6 30 11 49 12 44 3 81 10 88 17 3 3 -11 3 -31 1 -20 -3 -37 -2 -37 3 0 4
19 8 43 10 57 3 75 6 83 14 4 4 14 1 23 -5 9 -7 7 -2 -4 10 -14 17 -15 23 -5
20 8 -2 21 -10 27 -18 12 -13 12 -13 7 1 -3 11 1 16 13 16 58 0 66 3 53 18 -8
10 -9 15 -2 15 6 0 16 -8 22 -18 11 -16 11 -16 6 1 -5 17 3 21 36 18 9 -1 19
3 23 8 4 7 -1 8 -12 4 -13 -4 -15 -3 -8 5 6 6 28 12 50 15 23 2 39 9 37 15 -2
11 17 16 46 13 6 -1 12 3 12 9 0 6 -4 8 -10 5 -5 -3 -10 -1 -10 4 0 6 9 11 19
11 31 0 51 11 51 28 0 13 2 13 13 -3 11 -14 16 -15 22 -5 5 9 4 11 -3 6 -7 -4
-12 -2 -12 3 0 6 9 11 20 11 11 0 20 7 20 15 0 14 17 20 47 16 17 -2 25 16 12
25 -8 5 -9 3 -4 -6 5 -9 4 -11 -4 -6 -17 11 -5 23 21 21 16 -1 25 5 28 19 5
17 12 20 39 18 30 -3 32 -2 26 19 -5 16 -4 21 6 17 8 -3 23 -2 34 3 18 7 18 8
-5 9 -23 1 -23 2 -5 9 11 5 27 6 35 3 11 -4 10 1 -5 19 -11 13 -13 18 -5 12 8
-7 21 -13 30 -13 13 0 13 1 0 10 -13 8 -12 10 3 10 11 0 17 8 18 23 0 12 3 16
6 10 7 -18 23 -16 23 2 0 16 34 38 44 27 4 -3 4 2 0 13 -7 18 -6 18 9 6 15
-12 17 -12 11 3 -6 15 5 21 30 17 5 -1 6 6 2 15 -4 11 1 18 16 22 21 5 21 6 2
13 -17 7 -17 8 4 8 18 1 22 6 18 25 -4 20 -1 23 17 18 16 -4 19 -2 14 11 -4
10 -2 17 3 17 6 0 10 -8 11 -17 0 -13 3 -12 10 5 5 13 7 28 3 33 -3 5 4 9 15
9 14 0 19 5 14 16 -4 10 2 17 16 21 13 3 20 11 17 19 -3 8 -1 14 4 14 6 0 10
7 10 15 0 8 6 15 14 15 8 0 15 8 15 18 0 24 6 50 14 58 3 4 5 -3 2 -14 -2 -12
0 -24 4 -26 4 -3 8 10 9 27 3 32 19 50 36 40 5 -3 6 -1 2 6 -4 6 -2 19 6 28 9
12 9 15 1 9 -7 -4 -13 -2 -13 3 0 6 10 11 23 11 l22 0 -25 21 c-24 19 -24 20
-2 9 18 -9 23 -9 21 2 -3 27 1 38 16 38 10 0 15 11 15 35 0 24 5 35 15 35 8 0
15 5 15 11 0 5 -4 8 -9 4 -5 -3 -13 -1 -16 5 -4 6 -1 9 7 8 7 -2 14 8 16 22 2
13 11 29 19 35 10 7 16 29 17 58 1 49 5 54 24 35 7 -7 12 -9 12 -6 0 4 -7 14
-16 22 -12 12 -13 20 -4 33 10 16 11 16 6 -2 -6 -20 -6 -20 9 -1 9 12 11 22 6
26 -6 3 -6 11 -1 19 4 8 6 21 2 29 -4 11 -1 14 10 10 8 -4 15 -1 15 7 0 7 -5
11 -12 9 -6 -3 -11 5 -12 17 -1 15 1 18 10 10 10 -7 13 -4 15 14 1 14 -6 29
-16 35 -16 11 -16 11 1 6 19 -6 20 -1 17 77 -1 33 2 47 12 47 9 0 10 2 2 8 -7
4 -11 21 -11 39 1 17 5 29 9 27 5 -3 8 0 8 5 0 6 -4 11 -8 11 -4 0 -8 31 -8
70 0 39 4 70 9 70 4 0 6 -4 2 -9 -3 -5 0 -13 6 -17 8 -4 9 -3 5 4 -4 7 -1 12
6 12 7 1 4 6 -7 13 -16 9 -21 23 -21 65 -1 28 3 52 8 52 5 0 6 -4 3 -10 -3 -5
-1 -10 4 -10 15 0 14 13 -1 28 -15 15 -20 72 -6 72 5 0 7 -4 3 -9 -3 -5 -1
-12 4 -15 11 -7 9 14 -4 34 -12 18 -14 81 -3 74 5 -3 6 -9 3 -14 -3 -5 -2 -11
3 -14 4 -2 8 8 7 23 0 16 -5 27 -11 24 -6 -2 -11 3 -11 11 0 8 3 13 7 11 4 -2
12 7 18 20 6 14 8 24 4 24 -20 -3 -33 2 -27 11 4 6 11 7 17 4 6 -4 8 -2 4 4
-3 5 0 13 6 16 7 3 4 4 -7 1 -18 -4 -21 0 -21 35 0 22 3 40 8 40 5 0 7 -4 3
-9 -3 -5 0 -13 6 -17 8 -4 9 -3 5 4 -4 7 -1 12 6 12 7 1 4 6 -7 13 -16 9 -21
23 -21 65 -1 28 3 52 8 52 5 0 6 -4 3 -10 -3 -6 -1 -10 4 -10 15 0 14 13 -1
28 -15 15 -20 72 -6 72 5 0 7 -4 3 -9 -3 -5 -1 -12 4 -15 11 -7 9 14 -4 34
-13 20 -15 70 -3 70 5 0 7 -4 3 -9 -3 -5 -1 -12 4 -15 11 -7 9 14 -4 34 -9 13
-15 160 -7 160 1 0 7 -10 12 -22 8 -21 8 -20 7 8 -1 18 -7 30 -13 27 -6 -2
-11 3 -11 11 0 8 3 13 7 11 4 -2 12 7 18 20 6 14 8 24 4 24 -20 -3 -33 2 -27
11 4 6 11 7 17 4 6 -4 8 -2 4 4 -3 5 0 13 6 16 7 3 4 4 -7 1 -18 -4 -21 0 -21
35 0 22 3 40 8 40 4 0 8 -8 8 -17 0 -15 2 -16 10 -3 6 10 4 18 -8 25 -16 9
-18 27 -18 148 1 75 2 137 4 137 1 0 7 -10 13 -22 9 -23 9 -23 5 1 -3 14 0 32
6 40 10 13 10 14 -2 4 -21 -19 -26 -16 -26 16 0 17 3 28 8 25 4 -3 8 0 8 5 0
6 -3 11 -7 11 -5 0 -8 25 -9 55 -1 52 10 75 18 38 3 -15 5 -14 10 4 3 12 3 22
-1 21 -22 -3 -27 8 -27 61 1 33 4 57 9 54 4 -2 5 -9 2 -14 -4 -5 -2 -9 3 -9 6
0 9 11 8 24 0 13 -6 22 -12 19 -6 -2 -11 3 -11 11 0 8 4 13 8 11 15 -10 18 25
3 40 -14 14 -11 19 9 16 5 -1 6 3 3 8 -4 5 0 12 6 15 7 3 4 4 -7 1 -18 -4 -21
0 -21 35 -1 40 11 55 18 23 3 -15 5 -14 10 4 3 12 3 22 -1 21 -3 0 -11 0 -16
1 -13 1 -15 111 -3 111 5 0 6 -4 3 -10 -3 -5 -1 -10 4 -10 15 0 14 20 -1 25
-14 6 -20 115 -6 115 4 0 8 -8 8 -17 0 -15 2 -16 10 -3 6 10 4 18 -8 25 -9 5
-18 16 -20 24 -3 12 -1 12 14 0 14 -11 16 -11 10 0 -5 8 -3 17 5 23 10 6 6 7
-11 2 -22 -6 -23 -5 -11 10 7 9 9 16 5 16 -5 0 -9 39 -10 86 0 70 2 83 12 70
6 -10 10 -27 8 -39 -4 -21 -4 -21 5 -2 4 11 6 24 3 29 -9 16 -10 70 -1 82 5 7
3 11 -5 11 -10 0 -13 -9 -11 -29 2 -15 1 -28 -3 -28 -4 0 -7 46 -7 103 1 77 4
101 14 99 7 -1 10 2 7 7 -4 5 0 12 6 15 7 3 4 4 -7 1 -20 -5 -20 -1 -20 205 0
116 3 210 8 210 4 0 5 -5 1 -12 -4 -7 -3 -8 4 -4 6 4 9 13 5 21 -3 8 1 15 8
15 7 0 9 3 6 6 -4 4 -12 2 -19 -4 -11 -8 -13 1 -13 46 0 49 3 57 18 54 9 -2
17 2 17 8 0 5 -3 9 -7 9 -19 -3 -33 2 -33 12 0 6 7 9 14 6 10 -4 13 -1 9 9 -3
7 1 14 8 14 7 0 9 3 6 6 -4 4 -12 2 -19 -4 -10 -8 -13 9 -13 83 0 51 4 97 9
102 5 4 6 3 2 -4 -5 -9 -2 -11 8 -7 16 6 23 25 9 23 -5 -1 -13 -1 -18 0 -13 1
-14 296 -1 308 5 5 6 3 2 -4 -5 -9 -2 -11 8 -7 16 6 23 25 9 23 -23 -4 -30 4
-29 29 0 15 8 33 16 40 13 10 13 12 1 10 -12 -3 -15 17 -16 110 -1 65 2 115 8
119 6 3 7 1 3 -5 -5 -8 -2 -10 8 -6 16 6 23 25 9 23 -23 -4 -30 4 -29 29 0 15
8 33 16 40 13 10 13 12 0 10 -22 -4 -22 291 0 310 13 10 13 12 0 10 -22 -4
-23 211 0 230 13 10 13 12 0 10 -21 -4 -22 132 0 150 12 10 12 12 1 10 -12 -3
-15 23 -16 150 -1 89 3 156 8 159 6 3 7 1 3 -5 -5 -8 -2 -10 8 -6 16 6 23 25
9 23 -23 -4 -30 4 -29 29 0 15 8 33 16 40 13 10 13 12 0 10 -12 -3 -15 14 -15
94 0 53 2 95 5 93 3 -1 11 4 19 12 12 13 11 14 -6 9 -17 -5 -19 -1 -19 43 1
27 5 53 10 58 5 5 6 3 2 -4 -5 -9 -2 -11 8 -7 16 6 23 25 9 23 -25 -4 -29 6
-28 70 0 38 4 73 9 78 5 5 6 3 2 -4 -5 -9 -2 -11 8 -7 16 6 23 25 9 23 -25 -4
-28 8 -28 114 0 101 2 112 18 109 9 -2 17 2 17 8 0 5 -3 9 -7 9 -26 -4 -28 10
-28 154 0 138 2 152 18 149 9 -2 17 2 17 8 0 5 -3 9 -7 9 -26 -4 -28 8 -28
126 0 95 3 128 14 134 8 6 -1 8 -25 7 -26 0 -38 3 -36 12 3 15 -1 15 -15 1z
m-359 -64 c-7 -18 -20 -19 -30 -3 -4 6 -3 8 4 4 6 -3 13 -2 17 4 9 15 15 12 9
-5z m-1173 -738 c-10 -9 -11 -8 -5 6 3 10 9 15 12 12 3 -3 0 -11 -7 -18z m-61
-87 c0 -5 -5 -10 -11 -10 -5 0 -7 5 -4 10 3 6 8 10 11 10 2 0 4 -4 4 -10z
m-66 -98 c3 -5 -1 -9 -9 -9 -8 0 -12 4 -9 9 3 4 7 8 9 8 2 0 6 -4 9 -8z m-24
-60 c0 -13 -12 -22 -22 -16 -10 6 -1 24 13 24 5 0 9 -4 9 -8z m1755 -3762 c3
-5 1 -10 -4 -10 -6 0 -11 5 -11 10 0 6 2 10 4 10 3 0 8 -4 11 -10z m5 -800 c0
-5 -4 -10 -10 -10 -5 0 -10 5 -10 10 0 6 5 10 10 10 6 0 10 -4 10 -10z m0
-640 c0 -5 -4 -10 -10 -10 -5 0 -10 5 -10 10 0 6 5 10 10 10 6 0 10 -4 10 -10z
m-160 -1160 c0 -5 -4 -10 -10 -10 -5 0 -10 5 -10 10 0 6 5 10 10 10 6 0 10 -4
10 -10z m-340 -490 c0 -5 -5 -10 -11 -10 -5 0 -7 5 -4 10 3 6 8 10 11 10 2 0
4 -4 4 -10z m-225 -200 c3 -5 1 -10 -4 -10 -6 0 -11 5 -11 10 0 6 2 10 4 10 3
0 8 -4 11 -10z m-331 -198 c3 -5 -1 -9 -9 -9 -8 0 -12 4 -9 9 3 4 7 8 9 8 2 0
6 -4 9 -8z m-829 -192 c-3 -5 -12 -10 -18 -10 -7 0 -6 4 3 10 19 12 23 12 15
0z"/>
<path d="M3166 11442 c-3 -5 1 -9 9 -9 8 0 12 4 9 9 -3 4 -7 8 -9 8 -2 0 -6
-4 -9 -8z"/>
<path d="M5750 11430 c0 -5 5 -10 11 -10 5 0 7 5 4 10 -3 6 -8 10 -11 10 -2 0
-4 -4 -4 -10z"/>
<path d="M3173 11375 c0 -8 4 -12 9 -9 5 3 6 10 3 15 -9 13 -12 11 -12 -6z"/>
<path d="M11950 11381 c0 -6 4 -13 10 -16 6 -3 7 1 4 9 -7 18 -14 21 -14 7z"/>
<path d="M11945 11330 c1 -17 5 -33 8 -37 4 -3 2 -12 -5 -20 -8 -11 -7 -12 6
-7 19 7 19 9 5 36 -8 15 -8 22 0 28 9 5 8 10 -2 18 -11 10 -13 6 -12 -18z"/>
<path d="M3166 11322 c-3 -5 1 -9 9 -9 8 0 12 4 9 9 -3 4 -7 8 -9 8 -2 0 -6
-4 -9 -8z"/>
<path d="M3173 11255 c0 -8 4 -12 9 -9 5 3 6 10 3 15 -9 13 -12 11 -12 -6z"/>
<path d="M11070 11266 c0 -2 7 -7 16 -10 8 -3 12 -2 9 4 -6 10 -25 14 -25 6z"/>
<path d="M5750 11231 c0 -6 4 -13 10 -16 6 -3 7 1 4 9 -7 18 -14 21 -14 7z"/>
<path d="M11944 11209 c-3 -6 -1 -16 6 -22 10 -9 11 -9 5 2 -4 8 -2 17 6 22 9
6 10 9 2 9 -6 0 -15 -5 -19 -11z"/>
<path d="M10885 11160 c-3 -5 -1 -10 4 -10 6 0 11 5 11 10 0 6 -2 10 -4 10 -3
0 -8 -4 -11 -10z"/>
<path d="M3173 11135 c0 -8 4 -12 9 -9 5 3 6 10 3 15 -9 13 -12 11 -12 -6z"/>
<path d="M11945 11121 c2 -11 6 -25 9 -30 4 -5 1 -12 -4 -14 -6 -3 -5 -4 2 -2
7 1 11 9 9 16 -2 8 -4 19 -5 26 -1 7 -5 15 -9 19 -3 4 -5 -3 -2 -15z"/>
<path d="M5755 11119 c-4 -6 -5 -12 -2 -15 2 -3 7 2 10 11 7 17 1 20 -8 4z"/>
<path d="M10780 11100 c-9 -6 -10 -10 -3 -10 6 0 15 5 18 10 8 12 4 12 -15 0z"/>
<path d="M11949 11023 c8 -16 8 -23 -2 -26 -9 -4 -9 -6 0 -6 20 -2 23 15 7 35
-14 18 -15 18 -5 -3z"/>
<path d="M3173 11015 c0 -8 4 -12 9 -9 5 3 6 10 3 15 -9 13 -12 11 -12 -6z"/>
<path d="M5755 10999 c-4 -6 -5 -12 -2 -15 2 -3 7 2 10 11 7 17 1 20 -8 4z"/>
<path d="M11953 10965 c0 -8 4 -15 9 -15 4 0 8 4 8 9 0 6 -4 12 -8 15 -5 3 -9
-1 -9 -9z"/>
<path d="M11944 10925 c1 -8 8 -21 16 -28 12 -10 12 -9 2 4 -6 9 -9 18 -6 21
3 3 1 9 -4 12 -6 3 -9 -1 -8 -9z"/>
<path d="M3173 10895 c0 -8 4 -12 9 -9 5 3 6 10 3 15 -9 13 -12 11 -12 -6z"/>
<path d="M5755 10879 c-4 -6 -5 -12 -2 -15 2 -3 7 2 10 11 7 17 1 20 -8 4z"/>
<path d="M11940 10881 c0 -6 4 -13 10 -16 6 -3 7 1 4 9 -7 18 -14 21 -14 7z"/>
<path d="M3169 10868 c-5 -18 -6 -38 -1 -34 7 8 12 36 6 36 -2 0 -4 -1 -5 -2z"/>
<path d="M11945 10780 c1 -22 5 -43 8 -47 4 -3 2 -11 -3 -18 -7 -8 -5 -12 4
-12 14 0 14 16 0 51 -5 14 -4 17 5 11 11 -6 11 -3 0 16 -7 13 -11 26 -10 27 2
2 1 5 -1 8 -3 2 -4 -14 -3 -36z"/>
<path d="M3173 10775 c0 -8 4 -12 9 -9 5 3 6 10 3 15 -9 13 -12 11 -12 -6z"/>
<path d="M5755 10759 c-4 -6 -5 -12 -2 -15 2 -3 7 2 10 11 7 17 1 20 -8 4z"/>
<path d="M10350 10699 c0 -5 5 -7 10 -4 6 3 10 8 10 11 0 2 -4 4 -10 4 -5 0
-10 -5 -10 -11z"/>
<path d="M11944 10649 c-3 -6 -1 -16 6 -22 10 -9 11 -9 5 2 -4 8 -2 17 6 22 9
6 10 9 2 9 -6 0 -15 -5 -19 -11z"/>
<path d="M5755 10639 c-4 -6 -5 -12 -2 -15 2 -3 7 2 10 11 7 17 1 20 -8 4z"/>
<path d="M11947 10557 c-3 -8 1 -14 8 -14 7 0 11 6 8 14 -3 7 -6 13 -8 13 -2
0 -5 -6 -8 -13z"/>
<path d="M5755 10519 c-4 -6 -5 -12 -2 -15 2 -3 7 2 10 11 7 17 1 20 -8 4z"/>
<path d="M11944 10489 c-3 -6 -1 -16 6 -22 10 -9 11 -9 5 2 -4 8 -2 17 6 22 9
6 10 9 2 9 -6 0 -15 -5 -19 -11z"/>
<path d="M5755 10399 c-4 -6 -5 -12 -2 -15 2 -3 7 2 10 11 7 17 1 20 -8 4z"/>
<path d="M11945 10369 c-11 -16 -1 -19 13 -3 7 8 8 14 3 14 -5 0 -13 -5 -16
-11z"/>
<path d="M11945 10289 c-11 -16 -1 -19 13 -3 7 8 8 14 3 14 -5 0 -13 -5 -16
-11z"/>
<path d="M5755 10279 c-4 -6 -5 -12 -2 -15 2 -3 7 2 10 11 7 17 1 20 -8 4z"/>
<path d="M10095 10270 c-3 -5 -1 -10 4 -10 6 0 11 5 11 10 0 6 -2 10 -4 10 -3
0 -8 -4 -11 -10z"/>
<path d="M11949 10258 c-6 -11 -4 -66 2 -79 4 -9 4 -20 -2 -26 -6 -6 -5 -10 5
-10 14 0 14 15 1 50 -5 10 -3 17 5 17 10 0 9 4 -1 16 -10 13 -10 17 2 25 10 6
10 9 2 9 -7 0 -14 -1 -14 -2z"/>
<path d="M5753 10205 c0 -8 4 -12 9 -9 5 3 6 10 3 15 -9 13 -12 11 -12 -6z"/>
<path d="M11944 10089 c-3 -6 -1 -16 6 -22 10 -9 11 -9 5 2 -4 8 -2 17 6 22 9
6 10 9 2 9 -6 0 -15 -5 -19 -11z"/>
<path d="M5755 10080 c-3 -5 -1 -10 4 -10 6 0 11 5 11 10 0 6 -2 10 -4 10 -3
0 -8 -4 -11 -10z"/>
<path d="M3173 10055 c0 -8 4 -12 9 -9 5 3 6 10 3 15 -9 13 -12 11 -12 -6z"/>
<path d="M3169 10028 c-5 -18 -6 -38 -1 -34 7 8 12 36 6 36 -2 0 -4 -1 -5 -2z"/>
<path d="M11949 10008 c-7 -28 -4 -60 7 -75 14 -17 14 -16 4 6 -9 18 -9 25 0
31 9 5 9 9 1 14 -6 4 -9 12 -6 17 4 5 4 9 1 9 -3 0 -6 -1 -7 -2z"/>
<path d="M3173 9935 c0 -8 4 -12 9 -9 5 3 6 10 3 15 -9 13 -12 11 -12 -6z"/>
<path d="M3169 9908 c-5 -18 -6 -38 -1 -34 7 8 12 36 6 36 -2 0 -4 -1 -5 -2z"/>
<path d="M11945 9889 c-11 -16 -1 -19 13 -3 7 8 8 14 3 14 -5 0 -13 -5 -16
-11z"/>
<path d="M11945 9849 c-11 -16 -1 -19 13 -3 7 8 8 14 3 14 -5 0 -13 -5 -16
-11z"/>
<path d="M3173 9815 c0 -8 4 -12 9 -9 5 3 6 10 3 15 -9 13 -12 11 -12 -6z"/>
<path d="M11945 9809 c-11 -16 -1 -19 13 -3 7 8 8 14 3 14 -5 0 -13 -5 -16
-11z"/>
<path d="M3165 9780 c-4 -6 -1 -18 7 -27 7 -9 12 -18 10 -20 -2 -3 -2 -6 0 -8
2 -3 4 6 4 20 0 13 -4 21 -10 18 -5 -4 -7 1 -3 10 7 19 2 23 -8 7z"/>
<path d="M11949 9778 c-7 -23 -4 -35 7 -35 10 0 11 4 3 13 -7 8 -6 14 3 17 10
4 10 6 1 6 -7 1 -13 0 -14 -1z"/>
<path d="M3173 9695 c0 -8 4 -12 9 -9 5 3 6 10 3 15 -9 13 -12 11 -12 -6z"/>
<path d="M11944 9689 c-3 -6 -1 -16 6 -22 10 -9 11 -9 5 2 -4 8 -2 17 6 22 9
6 10 9 2 9 -6 0 -15 -5 -19 -11z"/>
<path d="M3169 9668 c-5 -18 -6 -38 -1 -34 7 8 12 36 6 36 -2 0 -4 -1 -5 -2z"/>
<path d="M11943 9634 c0 -7 6 -10 14 -7 7 3 13 8 13 12 0 4 -6 8 -13 8 -8 0
-14 -6 -14 -13z"/>
<path d="M11947 9596 c-4 -10 -1 -13 8 -9 8 3 12 9 9 14 -7 12 -11 11 -17 -5z"/>
<path d="M3173 9575 c0 -8 4 -12 9 -9 5 3 6 10 3 15 -9 13 -12 11 -12 -6z"/>
<path d="M3169 9548 c-8 -27 -5 -36 9 -30 10 4 12 7 4 10 -7 2 -10 8 -6 13 3
5 3 9 0 9 -3 0 -6 -1 -7 -2z"/>
<path d="M11944 9529 c-3 -6 -1 -16 6 -22 10 -9 11 -9 5 2 -4 8 -2 17 6 22 9
6 10 9 2 9 -6 0 -15 -5 -19 -11z"/>
<path d="M11943 9474 c0 -7 6 -10 14 -7 7 3 13 8 13 12 0 4 -6 8 -13 8 -8 0
-14 -6 -14 -13z"/>
<path d="M3173 9455 c0 -8 4 -12 9 -9 5 3 6 10 3 15 -9 13 -12 11 -12 -6z"/>
<path d="M11949 9448 c-6 -18 -5 -56 2 -69 5 -10 3 -21 -4 -28 -9 -10 -8 -11
6 -5 10 4 16 13 13 20 -3 8 -9 21 -12 29 -4 8 -1 15 6 15 9 0 10 3 1 13 -6 8
-8 17 -4 20 3 4 3 7 0 7 -4 0 -7 -1 -8 -2z"/>
<path d="M3169 9428 c-5 -18 -6 -38 -1 -34 7 8 12 36 6 36 -2 0 -4 -1 -5 -2z"/>
<path d="M6473 9415 c0 -8 4 -12 9 -9 5 3 6 10 3 15 -9 13 -12 11 -12 -6z"/>
<path d="M3173 9335 c0 -8 4 -12 9 -9 5 3 6 10 3 15 -9 13 -12 11 -12 -6z"/>
<path d="M3169 9308 c-5 -18 -6 -38 -1 -34 7 8 12 36 6 36 -2 0 -4 -1 -5 -2z"/>
<path d="M11944 9289 c-3 -6 -1 -16 6 -22 10 -9 11 -9 5 2 -4 8 -2 17 6 22 9
6 10 9 2 9 -6 0 -15 -5 -19 -11z"/>
<path d="M11943 9234 c0 -7 6 -10 14 -7 7 3 13 8 13 12 0 4 -6 8 -13 8 -8 0
-14 -6 -14 -13z"/>
<path d="M3173 9215 c0 -8 4 -12 9 -9 5 3 6 10 3 15 -9 13 -12 11 -12 -6z"/>
<path d="M3169 9188 c-5 -18 -6 -38 -1 -34 7 8 12 36 6 36 -2 0 -4 -1 -5 -2z"/>
<path d="M11946 9174 c-6 -14 9 -54 20 -54 2 0 0 10 -7 21 -8 16 -8 23 1 29 8
5 8 10 2 14 -5 3 -13 -1 -16 -10z"/>
<path d="M3173 9095 c0 -8 4 -12 9 -9 5 3 6 10 3 15 -9 13 -12 11 -12 -6z"/>
<path d="M11946 9094 c-3 -8 -2 -23 4 -33 6 -12 5 -22 -3 -30 -9 -10 -8 -11 6
-6 20 8 20 10 6 37 -8 15 -8 22 1 28 8 5 8 10 2 14 -5 3 -13 -1 -16 -10z"/>
<path d="M3167 9064 c-3 -4 -1 -16 5 -28 6 -11 10 -22 9 -24 -2 -2 -1 -5 1 -7
2 -3 4 7 4 20 0 14 -4 25 -9 25 -4 0 -5 5 -2 10 7 11 2 13 -8 4z"/>
<path d="M3173 8975 c0 -8 4 -12 9 -9 5 3 6 10 3 15 -9 13 -12 11 -12 -6z"/>
<path d="M11944 8969 c-3 -6 -1 -16 6 -22 10 -9 11 -9 5 2 -4 8 -2 17 6 22 9
6 10 9 2 9 -6 0 -15 -5 -19 -11z"/>
<path d="M3165 8940 c-4 -6 -1 -18 7 -27 7 -9 12 -18 10 -20 -2 -3 -2 -6 0 -8
2 -3 4 6 4 20 0 13 -4 21 -10 18 -5 -4 -7 1 -3 10 7 19 2 23 -8 7z"/>
<path d="M9270 8880 c0 -5 5 -10 10 -10 6 0 10 5 10 10 0 6 -4 10 -10 10 -5 0
-10 -4 -10 -10z"/>
<path d="M11949 8888 c-7 -28 -4 -60 7 -75 14 -17 14 -17 5 4 -14 28 -14 36 0
27 8 -5 8 -1 0 13 -6 11 -7 23 -4 27 3 3 3 6 0 6 -4 0 -7 -1 -8 -2z"/>
<path d="M3173 8855 c0 -8 4 -12 9 -9 5 3 6 10 3 15 -9 13 -12 11 -12 -6z"/>
<path d="M3173 8792 c2 -12 6 -24 10 -28 3 -4 4 4 2 16 -6 30 -16 40 -12 12z"/>
<path d="M11945 8770 c1 -17 5 -33 8 -37 4 -3 2 -12 -5 -20 -8 -11 -7 -12 6
-7 10 4 15 13 12 20 -3 8 -9 21 -13 31 -4 11 -3 14 6 8 10 -6 11 -3 2 14 -15
28 -18 27 -16 -9z"/>
<path d="M3173 8735 c0 -8 4 -12 9 -9 5 3 6 10 3 15 -9 13 -12 11 -12 -6z"/>
<path d="M3165 8700 c-4 -6 -1 -18 7 -27 7 -9 12 -18 10 -20 -2 -3 -2 -6 0 -8
2 -3 4 6 4 20 0 13 -4 21 -10 18 -5 -4 -7 1 -3 10 7 19 2 23 -8 7z"/>
<path d="M11944 8649 c-3 -6 -1 -16 6 -22 10 -9 11 -9 5 2 -4 8 -2 17 6 22 9
6 10 9 2 9 -6 0 -15 -5 -19 -11z"/>
<path d="M3173 8615 c0 -8 4 -12 9 -9 5 3 6 10 3 15 -9 13 -12 11 -12 -6z"/>
<path d="M3169 8588 c-5 -18 -6 -38 -1 -34 7 8 12 36 6 36 -2 0 -4 -1 -5 -2z"/>
<path d="M11949 8568 c-7 -28 -4 -60 7 -75 14 -17 14 -17 5 4 -14 28 -14 36 0
27 8 -5 8 -1 0 13 -6 11 -7 23 -4 27 3 3 3 6 0 6 -4 0 -7 -1 -8 -2z"/>
<path d="M3173 8495 c0 -8 4 -12 9 -9 5 3 6 10 3 15 -9 13 -12 11 -12 -6z"/>
<path d="M11945 8450 c1 -17 5 -33 8 -37 4 -3 2 -12 -5 -20 -8 -11 -7 -12 6
-7 10 4 15 13 12 20 -3 8 -9 21 -13 31 -4 11 -3 14 6 8 10 -6 11 -3 2 14 -15
28 -18 27 -16 -9z"/>
<path d="M3169 8468 c-5 -18 -6 -38 -1 -34 7 8 12 36 6 36 -2 0 -4 -1 -5 -2z"/>
<path d="M3173 8375 c0 -8 4 -12 9 -9 5 3 6 10 3 15 -9 13 -12 11 -12 -6z"/>
<path d="M3169 8348 c-5 -18 -6 -38 -1 -34 7 8 12 36 6 36 -2 0 -4 -1 -5 -2z"/>
<path d="M11944 8329 c-3 -6 -1 -16 6 -22 10 -9 11 -9 5 2 -4 8 -2 17 6 22 9
6 10 9 2 9 -6 0 -15 -5 -19 -11z"/>
<path d="M3173 8255 c0 -8 4 -12 9 -9 5 3 6 10 3 15 -9 13 -12 11 -12 -6z"/>
<path d="M11947 8243 c-3 -7 -1 -43 5 -80 1 -7 6 -13 11 -13 5 0 6 7 3 15 -3
8 -9 22 -13 32 -4 11 -3 14 6 8 10 -6 11 -3 2 12 -6 11 -7 23 -4 27 3 3 4 6 0
6 -3 0 -7 -3 -10 -7z"/>
<path d="M3165 8220 c-4 -6 -3 -16 3 -23 5 -7 8 -25 7 -40 -1 -15 1 -29 4 -32
4 -2 7 16 7 40 0 25 -5 41 -10 38 -5 -4 -7 1 -3 10 7 19 2 23 -8 7z"/>
<path d="M11943 8125 c0 -8 4 -12 9 -9 5 3 6 10 3 15 -9 13 -12 11 -12 -6z"/>
<path d="M3173 8095 c0 -8 4 -12 9 -9 5 3 6 10 3 15 -9 13 -12 11 -12 -6z"/>
<path d="M3165 8060 c-4 -6 -1 -18 7 -27 7 -9 12 -18 10 -20 -2 -3 -2 -6 0 -8
2 -3 4 6 4 20 0 13 -4 21 -10 18 -5 -4 -7 1 -3 10 7 19 2 23 -8 7z"/>
<path d="M11946 8005 c4 -8 11 -15 16 -15 6 0 5 6 -2 15 -7 8 -14 15 -16 15
-2 0 -1 -7 2 -15z"/>
<path d="M3173 7975 c0 -8 4 -12 9 -9 5 3 6 10 3 15 -9 13 -12 11 -12 -6z"/>
<path d="M11943 7965 c0 -8 4 -12 9 -9 5 3 6 10 3 15 -9 13 -12 11 -12 -6z"/>
<path d="M3165 7940 c-4 -6 -1 -18 7 -27 7 -9 12 -18 10 -20 -2 -3 -2 -6 0 -8
2 -3 4 6 4 20 0 13 -4 21 -10 18 -5 -4 -7 1 -3 10 7 19 2 23 -8 7z"/>
<path d="M11955 7880 c-3 -5 -1 -10 4 -10 6 0 11 5 11 10 0 6 -2 10 -4 10 -3
0 -8 -4 -11 -10z"/>
<path d="M3173 7855 c0 -8 4 -12 9 -9 5 3 6 10 3 15 -9 13 -12 11 -12 -6z"/>
<path d="M11944 7846 c1 -8 5 -18 8 -22 4 -3 5 1 4 10 -1 8 -5 18 -8 22 -4 3
-5 -1 -4 -10z"/>
<path d="M11941 7783 c0 -5 4 -17 9 -28 8 -17 8 -16 7 8 -1 15 -5 27 -9 27 -4
0 -8 -3 -7 -7z"/>
<path d="M8713 7755 c0 -8 4 -12 9 -9 4 3 8 9 8 15 0 5 -4 9 -8 9 -5 0 -9 -7
-9 -15z"/>
<path d="M3173 7735 c0 -8 4 -12 9 -9 5 3 6 10 3 15 -9 13 -12 11 -12 -6z"/>
<path d="M11949 7718 c-5 -44 -3 -76 3 -72 11 7 10 -10 -2 -22 -6 -6 -5 -15 1
-24 9 -13 10 -12 5 2 -3 10 -1 20 5 24 6 3 7 13 4 23 -13 32 -14 55 -4 62 8 5
8 8 0 13 -6 4 -12 1 -12 -6z"/>
<path d="M3165 7700 c-4 -6 -1 -18 7 -27 7 -9 12 -18 10 -20 -2 -3 -2 -6 0 -8
2 -3 4 6 4 20 0 13 -4 21 -10 18 -5 -4 -7 1 -3 10 7 19 2 23 -8 7z"/>
<path d="M3173 7615 c0 -8 4 -12 9 -9 5 3 6 10 3 15 -9 13 -12 11 -12 -6z"/>
<path d="M3169 7588 c-8 -27 -5 -36 9 -30 10 4 12 7 4 10 -7 2 -10 8 -6 13 3
5 3 9 0 9 -3 0 -6 -1 -7 -2z"/>
<path d="M11944 7566 c1 -8 5 -18 8 -22 4 -3 5 1 4 10 -1 8 -5 18 -8 22 -4 3
-5 -1 -4 -10z"/>
<path d="M3173 7455 c0 -8 4 -12 9 -9 5 3 6 10 3 15 -9 13 -12 11 -12 -6z"/>
<path d="M11943 7444 c0 -16 13 -19 21 -5 3 5 0 11 -7 14 -8 3 -14 -1 -14 -9z"/>
<path d="M3165 7420 c-4 -6 -1 -18 7 -27 7 -9 12 -18 10 -20 -2 -3 -2 -6 0 -8
2 -3 4 6 4 20 0 13 -4 21 -10 18 -5 -4 -7 1 -3 10 7 19 2 23 -8 7z"/>
<path d="M11944 7366 c1 -8 5 -18 8 -22 4 -3 5 1 4 10 -1 8 -5 18 -8 22 -4 3
-5 -1 -4 -10z"/>
<path d="M3173 7335 c0 -8 4 -12 9 -9 5 3 6 10 3 15 -9 13 -12 11 -12 -6z"/>
<path d="M3169 7308 c-8 -27 -5 -36 9 -30 10 4 12 7 4 10 -7 2 -10 8 -6 13 3
5 3 9 0 9 -3 0 -6 -1 -7 -2z"/>
<path d="M3173 7215 c0 -8 4 -12 9 -9 5 3 6 10 3 15 -9 13 -12 11 -12 -6z"/>
<path d="M3165 7180 c-4 -6 -1 -18 7 -27 7 -9 12 -18 10 -20 -2 -3 -2 -6 0 -8
2 -3 4 6 4 20 0 13 -4 21 -10 18 -5 -4 -7 1 -3 10 7 19 2 23 -8 7z"/>
<path d="M11944 7165 c1 -8 6 -18 11 -22 4 -4 5 -3 2 4 -4 6 -2 13 5 15 8 3 6
6 -4 10 -10 4 -15 2 -14 -7z"/>
<path d="M3173 7095 c0 -8 4 -12 9 -9 5 3 6 10 3 15 -9 13 -12 11 -12 -6z"/>
<path d="M7483 7103 c-18 -6 -16 -22 2 -19 20 3 40 23 23 23 -7 0 -19 -2 -25
-4z"/>
<path d="M7060 7030 c-9 -6 -10 -10 -3 -10 6 0 15 5 18 10 8 12 4 12 -15 0z"/>
<path d="M5750 6999 c0 -5 5 -7 10 -4 6 3 10 8 10 11 0 2 -4 4 -10 4 -5 0 -10
-5 -10 -11z"/>
<path d="M3173 6975 c0 -8 4 -12 9 -9 5 3 6 10 3 15 -9 13 -12 11 -12 -6z"/>
<path d="M11950 6960 c0 -5 5 -10 11 -10 5 0 7 5 4 10 -3 6 -8 10 -11 10 -2 0
-4 -4 -4 -10z"/>
<path d="M3169 6948 c-8 -27 -5 -36 9 -30 10 4 12 7 4 10 -7 2 -10 8 -6 13 3
5 3 9 0 9 -3 0 -6 -1 -7 -2z"/>
<path d="M11946 6927 c3 -10 9 -15 12 -12 3 3 0 11 -7 18 -10 9 -11 8 -5 -6z"/>
<path d="M5755 6919 c-4 -6 -5 -12 -2 -15 2 -3 7 2 10 11 7 17 1 20 -8 4z"/>
<path d="M3173 6815 c0 -8 4 -12 9 -9 5 3 6 10 3 15 -9 13 -12 11 -12 -6z"/>
<path d="M11945 6811 c-3 -5 0 -13 6 -17 7 -4 9 -3 5 4 -3 5 0 13 6 15 9 4 10
6 1 6 -6 1 -14 -3 -18 -8z"/>
<path d="M5755 6799 c-4 -6 -5 -12 -2 -15 2 -3 7 2 10 11 7 17 1 20 -8 4z"/>
<path d="M3169 6788 c-5 -18 -6 -38 -1 -34 7 8 12 36 6 36 -2 0 -4 -1 -5 -2z"/>
<path d="M3173 6695 c0 -8 4 -12 9 -9 5 3 6 10 3 15 -9 13 -12 11 -12 -6z"/>
<path d="M5755 6679 c-4 -6 -5 -12 -2 -15 2 -3 7 2 10 11 7 17 1 20 -8 4z"/>
<path d="M3169 6668 c-5 -18 -6 -38 -1 -34 7 8 12 36 6 36 -2 0 -4 -1 -5 -2z"/>
<path d="M3173 6575 c0 -8 4 -12 9 -9 5 3 6 10 3 15 -9 13 -12 11 -12 -6z"/>
<path d="M5755 6559 c-4 -6 -5 -12 -2 -15 2 -3 7 2 10 11 7 17 1 20 -8 4z"/>
<path d="M3169 6548 c-5 -18 -6 -38 -1 -34 7 8 12 36 6 36 -2 0 -4 -1 -5 -2z"/>
<path d="M11945 6491 c-3 -5 0 -13 6 -17 7 -4 9 -3 5 4 -3 5 0 13 6 15 9 4 10
6 1 6 -6 1 -14 -3 -18 -8z"/>
<path d="M3173 6455 c0 -8 4 -12 9 -9 5 3 6 10 3 15 -9 13 -12 11 -12 -6z"/>
<path d="M5755 6439 c-4 -6 -5 -12 -2 -15 2 -3 7 2 10 11 7 17 1 20 -8 4z"/>
<path d="M3169 6428 c-5 -18 -6 -38 -1 -34 7 8 12 36 6 36 -2 0 -4 -1 -5 -2z"/>
<path d="M11950 6400 c0 -5 5 -10 11 -10 5 0 7 5 4 10 -3 6 -8 10 -11 10 -2 0
-4 -4 -4 -10z"/>
<path d="M11946 6367 c3 -10 9 -15 12 -12 3 3 0 11 -7 18 -10 9 -11 8 -5 -6z"/>
<path d="M3173 6335 c0 -8 4 -12 9 -9 5 3 6 10 3 15 -9 13 -12 11 -12 -6z"/>
<path d="M5755 6319 c-4 -6 -5 -12 -2 -15 2 -3 7 2 10 11 7 17 1 20 -8 4z"/>
<path d="M5750 6190 c-6 -11 -8 -20 -6 -20 3 0 10 9 16 20 6 11 8 20 6 20 -3
0 -10 -9 -16 -20z"/>
<path d="M11947 6199 c7 -7 15 -10 18 -7 3 3 -2 9 -12 12 -14 6 -15 5 -6 -5z"/>
<path d="M11952 6160 c0 -14 2 -19 5 -12 2 6 2 18 0 25 -3 6 -5 1 -5 -13z"/>
<path d="M11953 6120 c2 -8 0 -23 -5 -32 -5 -11 -5 -18 0 -18 14 0 21 36 10
51 -8 11 -9 11 -5 -1z"/>
<path d="M5750 6070 c-6 -11 -8 -20 -6 -20 3 0 10 9 16 20 6 11 8 20 6 20 -3
0 -10 -9 -16 -20z"/>
<path d="M11945 6011 c-3 -5 0 -13 6 -17 7 -4 9 -3 5 4 -3 5 0 13 6 15 9 4 10
6 1 6 -6 1 -14 -3 -18 -8z"/>
<path d="M5755 5959 c-4 -6 -5 -12 -2 -15 2 -3 7 2 10 11 7 17 1 20 -8 4z"/>
<path d="M5750 5830 c-6 -11 -8 -20 -6 -20 3 0 10 9 16 20 6 11 8 20 6 20 -3
0 -10 -9 -16 -20z"/>
<path d="M5755 5719 c-4 -6 -5 -12 -2 -15 2 -3 7 2 10 11 7 17 1 20 -8 4z"/>
<path d="M11947 5719 c7 -7 15 -10 18 -7 3 3 -2 9 -12 12 -14 6 -15 5 -6 -5z"/>
<path d="M11947 5685 c-4 -8 -3 -16 1 -19 4 -3 9 4 9 15 2 23 -3 25 -10 4z"/>
<path d="M11947 5639 c7 -7 15 -10 18 -7 3 3 -2 9 -12 12 -14 6 -15 5 -6 -5z"/>
<path d="M3173 5575 c0 -8 4 -12 9 -9 5 3 6 10 3 15 -9 13 -12 11 -12 -6z"/>
<path d="M5755 5559 c-4 -6 -5 -12 -2 -15 2 -3 7 2 10 11 7 17 1 20 -8 4z"/>
<path d="M11947 5559 c7 -7 15 -10 18 -7 3 3 -2 9 -12 12 -14 6 -15 5 -6 -5z"/>
<path d="M3169 5548 c-5 -18 -6 -38 -1 -34 7 8 12 36 6 36 -2 0 -4 -1 -5 -2z"/>
<path d="M11947 5479 c7 -7 15 -10 18 -7 3 3 -2 9 -12 12 -14 6 -15 5 -6 -5z"/>
<path d="M3173 5455 c0 -8 4 -12 9 -9 5 3 6 10 3 15 -9 13 -12 11 -12 -6z"/>
<path d="M3169 5428 c-5 -18 -6 -38 -1 -34 7 8 12 36 6 36 -2 0 -4 -1 -5 -2z"/>
<path d="M11945 5379 c1 -10 4 -21 8 -24 4 -3 5 -2 2 2 -3 3 0 12 5 18 7 9 6
14 -3 18 -9 3 -13 -2 -12 -14z"/>
<path d="M5750 5370 c0 -5 5 -10 11 -10 5 0 7 5 4 10 -3 6 -8 10 -11 10 -2 0
-4 -4 -4 -10z"/>
<path d="M3173 5335 c0 -8 4 -12 9 -9 5 3 6 10 3 15 -9 13 -12 11 -12 -6z"/>
<path d="M3169 5308 c-5 -18 -6 -38 -1 -34 7 8 12 36 6 36 -2 0 -4 -1 -5 -2z"/>
<path d="M3173 5215 c0 -8 4 -12 9 -9 5 3 6 10 3 15 -9 13 -12 11 -12 -6z"/>
<path d="M3169 5188 c-5 -18 -6 -38 -1 -34 7 8 12 36 6 36 -2 0 -4 -1 -5 -2z"/>
<path d="M3173 5095 c0 -8 4 -12 9 -9 5 3 6 10 3 15 -9 13 -12 11 -12 -6z"/>
<path d="M11947 5079 c7 -7 15 -10 18 -7 3 3 -2 9 -12 12 -14 6 -15 5 -6 -5z"/>
<path d="M3169 5068 c-5 -18 -6 -38 -1 -34 7 8 12 36 6 36 -2 0 -4 -1 -5 -2z"/>
<path d="M11947 4999 c7 -7 15 -10 18 -7 3 3 -2 9 -12 12 -14 6 -15 5 -6 -5z"/>
<path d="M3173 4975 c0 -8 4 -12 9 -9 5 3 6 10 3 15 -9 13 -12 11 -12 -6z"/>
<path d="M3169 4948 c-5 -18 -6 -38 -1 -34 7 8 12 36 6 36 -2 0 -4 -1 -5 -2z"/>
<path d="M11945 4899 c1 -10 4 -21 8 -24 4 -3 5 -2 2 2 -3 3 0 12 5 18 7 9 6
14 -3 18 -9 3 -13 -2 -12 -14z"/>
<path d="M3173 4855 c0 -8 4 -12 9 -9 5 3 6 10 3 15 -9 13 -12 11 -12 -6z"/>
<path d="M3169 4828 c-5 -18 -6 -38 -1 -34 7 8 12 36 6 36 -2 0 -4 -1 -5 -2z"/>
<path d="M11940 4781 c0 -6 4 -12 8 -15 5 -3 9 1 9 9 0 8 -4 15 -9 15 -4 0 -8
-4 -8 -9z"/>
<path d="M3173 4735 c0 -8 4 -12 9 -9 5 3 6 10 3 15 -9 13 -12 11 -12 -6z"/>
<path d="M11946 4734 c-5 -14 -4 -15 9 -4 17 14 19 20 6 20 -5 0 -12 -7 -15
-16z"/>
<path d="M3169 4708 c-5 -18 -6 -38 -1 -34 7 8 12 36 6 36 -2 0 -4 -1 -5 -2z"/>
<path d="M3173 4615 c0 -8 4 -12 9 -9 5 3 6 10 3 15 -9 13 -12 11 -12 -6z"/>
<path d="M11950 4610 c-8 -5 -12 -12 -9 -15 4 -3 12 1 19 10 14 17 11 19 -10
5z"/>
<path d="M3169 4588 c-5 -18 -6 -38 -1 -34 7 8 12 36 6 36 -2 0 -4 -1 -5 -2z"/>
<path d="M3173 4495 c0 -8 4 -12 9 -9 5 3 6 10 3 15 -9 13 -12 11 -12 -6z"/>
<path d="M3169 4468 c-5 -18 -6 -38 -1 -34 7 8 12 36 6 36 -2 0 -4 -1 -5 -2z"/>
<path d="M3173 4375 c0 -8 4 -12 9 -9 5 3 6 10 3 15 -9 13 -12 11 -12 -6z"/>
<path d="M5325 4100 c-3 -5 -1 -10 4 -10 6 0 11 5 11 10 0 6 -2 10 -4 10 -3 0
-8 -4 -11 -10z"/>
<path d="M3176 3635 c-9 -26 -7 -32 5 -12 6 10 9 21 6 23 -2 3 -7 -2 -11 -11z"/>
<path d="M3176 3555 c-9 -26 -7 -32 5 -12 6 10 9 21 6 23 -2 3 -7 -2 -11 -11z"/>
<path d="M4790 3540 c0 -5 5 -10 10 -10 6 0 10 5 10 10 0 6 -4 10 -10 10 -5 0
-10 -4 -10 -10z"/>
<path d="M11380 3476 c0 -2 7 -7 16 -10 8 -3 12 -2 9 4 -6 10 -25 14 -25 6z"/>
<path d="M3176 3315 c-9 -26 -7 -32 5 -12 6 10 9 21 6 23 -2 3 -7 -2 -11 -11z"/>
<path d="M11181 3314 c0 -11 3 -14 6 -6 3 7 2 16 -1 19 -3 4 -6 -2 -5 -13z"/>
<path d="M4437 3313 c-4 -3 -7 -11 -7 -17 0 -6 5 -5 12 2 6 6 9 14 7 17 -3 3
-9 2 -12 -2z"/>
<path d="M3175 3269 c-4 -6 -5 -12 -2 -15 2 -3 7 2 10 11 7 17 1 20 -8 4z"/>
<path d="M3175 3229 c-4 -6 -5 -12 -2 -15 2 -3 7 2 10 11 7 17 1 20 -8 4z"/>
<path d="M3550 3010 c-8 -5 -10 -10 -5 -10 6 0 17 5 25 10 8 5 11 10 5 10 -5
0 -17 -5 -25 -10z"/>
<path d="M3290 2986 c0 -2 7 -7 16 -10 8 -3 12 -2 9 4 -6 10 -25 14 -25 6z"/>
<path d="M10154 2949 c-4 -7 -3 -9 4 -5 5 3 12 0 15 -6 2 -7 7 -10 11 -7 4 3
0 12 -8 18 -11 9 -16 9 -22 0z"/>
</g>
</svg>
